<mxfile host="app.diagrams.net" agent="Mozilla/5.0 (Macintosh; Intel Mac OS X 10_15_7) AppleWebKit/537.36 (KHTML, like Gecko) Chrome/127.0.0.0 Safari/537.36" version="24.7.6">
  <diagram id="C5RBs43oDa-KdzZeNtuy" name="Page-1">
    <mxGraphModel dx="1968" dy="2419" grid="1" gridSize="10" guides="1" tooltips="1" connect="1" arrows="1" fold="1" page="1" pageScale="1" pageWidth="827" pageHeight="1169" math="0" shadow="0">
      <root>
        <mxCell id="WIyWlLk6GJQsqaUBKTNV-0" />
        <mxCell id="WIyWlLk6GJQsqaUBKTNV-1" parent="WIyWlLk6GJQsqaUBKTNV-0" />
        <mxCell id="9ebifKDBvj5PMloUpHeM-3" value="" style="edgeStyle=orthogonalEdgeStyle;rounded=0;orthogonalLoop=1;jettySize=auto;html=1;fontSize=25;strokeWidth=3;fontStyle=1" parent="WIyWlLk6GJQsqaUBKTNV-1" source="9ebifKDBvj5PMloUpHeM-1" target="9ebifKDBvj5PMloUpHeM-2" edge="1">
          <mxGeometry relative="1" as="geometry" />
        </mxCell>
        <mxCell id="9ebifKDBvj5PMloUpHeM-1" value="&lt;span style=&quot;font-size: 25px;&quot;&gt;Begin&lt;/span&gt;" style="ellipse;whiteSpace=wrap;html=1;fontSize=25;strokeWidth=3;fontStyle=1" parent="WIyWlLk6GJQsqaUBKTNV-1" vertex="1">
          <mxGeometry x="470" y="-20" width="110" height="40" as="geometry" />
        </mxCell>
        <mxCell id="9ebifKDBvj5PMloUpHeM-5" value="" style="edgeStyle=orthogonalEdgeStyle;rounded=0;orthogonalLoop=1;jettySize=auto;html=1;fontSize=25;strokeWidth=3;fontStyle=1" parent="WIyWlLk6GJQsqaUBKTNV-1" source="9ebifKDBvj5PMloUpHeM-2" target="9ebifKDBvj5PMloUpHeM-4" edge="1">
          <mxGeometry relative="1" as="geometry" />
        </mxCell>
        <mxCell id="9ebifKDBvj5PMloUpHeM-2" value="Read/Verify AES Key" style="whiteSpace=wrap;html=1;fontSize=25;strokeWidth=3;fontStyle=1" parent="WIyWlLk6GJQsqaUBKTNV-1" vertex="1">
          <mxGeometry x="360" y="50" width="330" height="40" as="geometry" />
        </mxCell>
        <mxCell id="9ebifKDBvj5PMloUpHeM-8" value="" style="edgeStyle=orthogonalEdgeStyle;rounded=0;orthogonalLoop=1;jettySize=auto;html=1;fontSize=25;strokeWidth=3;fontStyle=1" parent="WIyWlLk6GJQsqaUBKTNV-1" source="9ebifKDBvj5PMloUpHeM-4" target="9ebifKDBvj5PMloUpHeM-7" edge="1">
          <mxGeometry relative="1" as="geometry" />
        </mxCell>
        <mxCell id="9ebifKDBvj5PMloUpHeM-4" value="Connect to TCP Endpoint" style="whiteSpace=wrap;html=1;fontSize=25;strokeWidth=3;fontStyle=1" parent="WIyWlLk6GJQsqaUBKTNV-1" vertex="1">
          <mxGeometry x="360" y="110" width="330" height="40" as="geometry" />
        </mxCell>
        <mxCell id="9ebifKDBvj5PMloUpHeM-10" value="" style="edgeStyle=orthogonalEdgeStyle;rounded=0;orthogonalLoop=1;jettySize=auto;html=1;fontSize=25;strokeWidth=3;fontStyle=1" parent="WIyWlLk6GJQsqaUBKTNV-1" source="9ebifKDBvj5PMloUpHeM-7" target="9ebifKDBvj5PMloUpHeM-9" edge="1">
          <mxGeometry relative="1" as="geometry" />
        </mxCell>
        <mxCell id="9ebifKDBvj5PMloUpHeM-37" value="" style="edgeStyle=orthogonalEdgeStyle;rounded=0;orthogonalLoop=1;jettySize=auto;html=1;fontSize=25;strokeWidth=3;fontStyle=1" parent="WIyWlLk6GJQsqaUBKTNV-1" source="9ebifKDBvj5PMloUpHeM-7" target="9ebifKDBvj5PMloUpHeM-9" edge="1">
          <mxGeometry relative="1" as="geometry" />
        </mxCell>
        <mxCell id="9ebifKDBvj5PMloUpHeM-7" value="&lt;div style=&quot;font-size: 25px;&quot;&gt;Generate &amp;amp; Transmit IV&lt;br style=&quot;font-size: 25px;&quot;&gt;&lt;/div&gt;" style="whiteSpace=wrap;html=1;fontSize=25;strokeWidth=3;fontStyle=1" parent="WIyWlLk6GJQsqaUBKTNV-1" vertex="1">
          <mxGeometry x="360" y="170" width="330" height="40" as="geometry" />
        </mxCell>
        <mxCell id="9ebifKDBvj5PMloUpHeM-12" value="" style="edgeStyle=orthogonalEdgeStyle;rounded=0;orthogonalLoop=1;jettySize=auto;html=1;fontSize=25;strokeWidth=3;fontStyle=1" parent="WIyWlLk6GJQsqaUBKTNV-1" source="9ebifKDBvj5PMloUpHeM-9" target="9ebifKDBvj5PMloUpHeM-11" edge="1">
          <mxGeometry relative="1" as="geometry" />
        </mxCell>
        <mxCell id="9ebifKDBvj5PMloUpHeM-9" value="T&lt;sub style=&quot;font-size: 25px;&quot;&gt;p&lt;/sub&gt;=0 ms &amp;amp; Frame&lt;sub style=&quot;font-size: 25px;&quot;&gt;N&lt;/sub&gt;= 0" style="whiteSpace=wrap;html=1;fontSize=25;strokeWidth=3;fontStyle=1" parent="WIyWlLk6GJQsqaUBKTNV-1" vertex="1">
          <mxGeometry x="360" y="230" width="330" height="40" as="geometry" />
        </mxCell>
        <mxCell id="9ebifKDBvj5PMloUpHeM-15" value="" style="edgeStyle=orthogonalEdgeStyle;rounded=0;orthogonalLoop=1;jettySize=auto;html=1;entryX=0.5;entryY=1;entryDx=0;entryDy=0;fontSize=25;strokeWidth=3;fontStyle=1" parent="WIyWlLk6GJQsqaUBKTNV-1" source="9ebifKDBvj5PMloUpHeM-11" target="9ebifKDBvj5PMloUpHeM-14" edge="1">
          <mxGeometry relative="1" as="geometry">
            <Array as="points">
              <mxPoint x="770" y="355" />
            </Array>
          </mxGeometry>
        </mxCell>
        <mxCell id="9ebifKDBvj5PMloUpHeM-41" style="edgeStyle=orthogonalEdgeStyle;rounded=0;orthogonalLoop=1;jettySize=auto;html=1;exitX=0.5;exitY=1;exitDx=0;exitDy=0;strokeWidth=3;fontSize=25;fontStyle=1" parent="WIyWlLk6GJQsqaUBKTNV-1" source="9ebifKDBvj5PMloUpHeM-11" target="9ebifKDBvj5PMloUpHeM-17" edge="1">
          <mxGeometry relative="1" as="geometry" />
        </mxCell>
        <mxCell id="9ebifKDBvj5PMloUpHeM-11" value="&lt;font style=&quot;font-size: 25px;&quot;&gt;T&lt;sub style=&quot;font-size: 25px;&quot;&gt;c&amp;nbsp;&lt;/sub&gt;- T&lt;sub style=&quot;font-size: 25px;&quot;&gt;p&amp;nbsp;&lt;/sub&gt;&amp;gt; 10 ms&lt;/font&gt;" style="rhombus;whiteSpace=wrap;html=1;fontSize=25;strokeWidth=3;fontStyle=1" parent="WIyWlLk6GJQsqaUBKTNV-1" vertex="1">
          <mxGeometry x="400" y="310" width="250" height="90" as="geometry" />
        </mxCell>
        <mxCell id="9ebifKDBvj5PMloUpHeM-16" style="edgeStyle=orthogonalEdgeStyle;rounded=0;orthogonalLoop=1;jettySize=auto;html=1;entryX=0.5;entryY=0;entryDx=0;entryDy=0;fontSize=25;exitX=0.5;exitY=0;exitDx=0;exitDy=0;strokeWidth=3;fontStyle=1" parent="WIyWlLk6GJQsqaUBKTNV-1" source="9ebifKDBvj5PMloUpHeM-14" target="9ebifKDBvj5PMloUpHeM-11" edge="1">
          <mxGeometry relative="1" as="geometry">
            <mxPoint x="530" y="290" as="targetPoint" />
            <Array as="points">
              <mxPoint x="770" y="290" />
              <mxPoint x="525" y="290" />
            </Array>
          </mxGeometry>
        </mxCell>
        <mxCell id="9ebifKDBvj5PMloUpHeM-14" value="Sleep 5 ms" style="whiteSpace=wrap;html=1;fontSize=25;strokeWidth=3;fontStyle=1" parent="WIyWlLk6GJQsqaUBKTNV-1" vertex="1">
          <mxGeometry x="680" y="300" width="180" height="27.5" as="geometry" />
        </mxCell>
        <mxCell id="9ebifKDBvj5PMloUpHeM-20" value="" style="edgeStyle=orthogonalEdgeStyle;rounded=0;orthogonalLoop=1;jettySize=auto;html=1;fontSize=25;strokeWidth=3;fontStyle=1" parent="WIyWlLk6GJQsqaUBKTNV-1" source="9ebifKDBvj5PMloUpHeM-17" target="9ebifKDBvj5PMloUpHeM-19" edge="1">
          <mxGeometry relative="1" as="geometry" />
        </mxCell>
        <mxCell id="9ebifKDBvj5PMloUpHeM-17" value="Offset = 0" style="whiteSpace=wrap;html=1;fontSize=25;strokeWidth=3;fontStyle=1" parent="WIyWlLk6GJQsqaUBKTNV-1" vertex="1">
          <mxGeometry x="465" y="470.63" width="120" height="32.5" as="geometry" />
        </mxCell>
        <mxCell id="9ebifKDBvj5PMloUpHeM-22" value="" style="edgeStyle=orthogonalEdgeStyle;rounded=0;orthogonalLoop=1;jettySize=auto;html=1;fontSize=25;strokeWidth=3;fontStyle=1" parent="WIyWlLk6GJQsqaUBKTNV-1" source="9ebifKDBvj5PMloUpHeM-19" target="9ebifKDBvj5PMloUpHeM-21" edge="1">
          <mxGeometry relative="1" as="geometry" />
        </mxCell>
        <mxCell id="9ebifKDBvj5PMloUpHeM-19" value="Read Frame" style="whiteSpace=wrap;html=1;fontSize=25;strokeWidth=3;fontStyle=1" parent="WIyWlLk6GJQsqaUBKTNV-1" vertex="1">
          <mxGeometry x="430" y="530" width="190" height="33.75" as="geometry" />
        </mxCell>
        <mxCell id="9ebifKDBvj5PMloUpHeM-24" value="" style="edgeStyle=orthogonalEdgeStyle;rounded=0;orthogonalLoop=1;jettySize=auto;html=1;entryX=0.5;entryY=1;entryDx=0;entryDy=0;fontSize=25;strokeWidth=3;fontStyle=1" parent="WIyWlLk6GJQsqaUBKTNV-1" source="9ebifKDBvj5PMloUpHeM-21" target="9ebifKDBvj5PMloUpHeM-23" edge="1">
          <mxGeometry relative="1" as="geometry" />
        </mxCell>
        <mxCell id="9ebifKDBvj5PMloUpHeM-29" value="" style="edgeStyle=orthogonalEdgeStyle;rounded=0;orthogonalLoop=1;jettySize=auto;html=1;fontSize=25;strokeWidth=3;fontStyle=1" parent="WIyWlLk6GJQsqaUBKTNV-1" source="9ebifKDBvj5PMloUpHeM-21" target="9ebifKDBvj5PMloUpHeM-28" edge="1">
          <mxGeometry relative="1" as="geometry" />
        </mxCell>
        <mxCell id="9ebifKDBvj5PMloUpHeM-21" value="Offset &amp;lt;&amp;nbsp;&lt;div style=&quot;font-size: 25px;&quot;&gt;Frame size&lt;/div&gt;" style="rhombus;whiteSpace=wrap;html=1;fontSize=25;strokeWidth=3;fontStyle=1" parent="WIyWlLk6GJQsqaUBKTNV-1" vertex="1">
          <mxGeometry x="430" y="600" width="190" height="90" as="geometry" />
        </mxCell>
        <mxCell id="9ebifKDBvj5PMloUpHeM-26" value="" style="edgeStyle=orthogonalEdgeStyle;rounded=0;orthogonalLoop=1;jettySize=auto;html=1;fontSize=25;strokeWidth=3;fontStyle=1" parent="WIyWlLk6GJQsqaUBKTNV-1" source="9ebifKDBvj5PMloUpHeM-23" target="9ebifKDBvj5PMloUpHeM-25" edge="1">
          <mxGeometry relative="1" as="geometry" />
        </mxCell>
        <mxCell id="9ebifKDBvj5PMloUpHeM-23" value="Frame&lt;span style=&quot;font-size: 25px;&quot;&gt;&lt;sub style=&quot;font-size: 25px;&quot;&gt;N&lt;/sub&gt;&lt;/span&gt;++" style="whiteSpace=wrap;html=1;fontSize=25;strokeWidth=3;fontStyle=1" parent="WIyWlLk6GJQsqaUBKTNV-1" vertex="1">
          <mxGeometry x="230" y="530" width="180" height="33.75" as="geometry" />
        </mxCell>
        <mxCell id="9ebifKDBvj5PMloUpHeM-27" style="edgeStyle=orthogonalEdgeStyle;rounded=0;orthogonalLoop=1;jettySize=auto;html=1;entryX=0.5;entryY=0;entryDx=0;entryDy=0;exitX=0.5;exitY=0;exitDx=0;exitDy=0;fontSize=25;strokeWidth=3;fontStyle=1" parent="WIyWlLk6GJQsqaUBKTNV-1" source="9ebifKDBvj5PMloUpHeM-25" target="9ebifKDBvj5PMloUpHeM-11" edge="1">
          <mxGeometry relative="1" as="geometry">
            <Array as="points">
              <mxPoint x="320" y="290" />
              <mxPoint x="525" y="290" />
            </Array>
          </mxGeometry>
        </mxCell>
        <mxCell id="9ebifKDBvj5PMloUpHeM-25" value="T&lt;sub style=&quot;font-size: 25px;&quot;&gt;p&lt;/sub&gt;+= 10 ms" style="whiteSpace=wrap;html=1;fontSize=25;strokeWidth=3;fontStyle=1" parent="WIyWlLk6GJQsqaUBKTNV-1" vertex="1">
          <mxGeometry x="220" y="470" width="200" height="33.13" as="geometry" />
        </mxCell>
        <mxCell id="9ebifKDBvj5PMloUpHeM-31" value="" style="edgeStyle=orthogonalEdgeStyle;rounded=0;orthogonalLoop=1;jettySize=auto;html=1;fontSize=25;strokeWidth=3;fontStyle=1" parent="WIyWlLk6GJQsqaUBKTNV-1" source="9ebifKDBvj5PMloUpHeM-28" target="9ebifKDBvj5PMloUpHeM-30" edge="1">
          <mxGeometry relative="1" as="geometry" />
        </mxCell>
        <mxCell id="9ebifKDBvj5PMloUpHeM-28" value="Build/Encode/Transmit" style="whiteSpace=wrap;html=1;fontSize=25;strokeWidth=3;fontStyle=1" parent="WIyWlLk6GJQsqaUBKTNV-1" vertex="1">
          <mxGeometry x="370" y="760" width="310" height="30" as="geometry" />
        </mxCell>
        <mxCell id="9ebifKDBvj5PMloUpHeM-32" style="edgeStyle=orthogonalEdgeStyle;rounded=0;orthogonalLoop=1;jettySize=auto;html=1;entryX=0.5;entryY=0;entryDx=0;entryDy=0;fontSize=25;exitX=0.5;exitY=1;exitDx=0;exitDy=0;strokeWidth=3;fontStyle=1" parent="WIyWlLk6GJQsqaUBKTNV-1" source="9ebifKDBvj5PMloUpHeM-30" target="9ebifKDBvj5PMloUpHeM-21" edge="1">
          <mxGeometry relative="1" as="geometry">
            <Array as="points">
              <mxPoint x="525" y="870" />
              <mxPoint x="730" y="870" />
              <mxPoint x="730" y="580" />
              <mxPoint x="525" y="580" />
            </Array>
          </mxGeometry>
        </mxCell>
        <mxCell id="9ebifKDBvj5PMloUpHeM-30" value="Offset += 116" style="whiteSpace=wrap;html=1;fontSize=25;strokeWidth=3;fontStyle=1" parent="WIyWlLk6GJQsqaUBKTNV-1" vertex="1">
          <mxGeometry x="420" y="820" width="210" height="30" as="geometry" />
        </mxCell>
        <mxCell id="9ebifKDBvj5PMloUpHeM-33" value="No" style="text;html=1;align=center;verticalAlign=middle;resizable=0;points=[];autosize=1;strokeColor=none;fillColor=none;fontSize=25;labelBackgroundColor=default;strokeWidth=3;fontStyle=1" parent="WIyWlLk6GJQsqaUBKTNV-1" vertex="1">
          <mxGeometry x="354" y="625" width="60" height="40" as="geometry" />
        </mxCell>
        <mxCell id="9ebifKDBvj5PMloUpHeM-34" value="&lt;font style=&quot;font-size: 25px;&quot;&gt;No&lt;/font&gt;" style="text;html=1;align=center;verticalAlign=middle;resizable=0;points=[];autosize=1;strokeColor=none;fillColor=none;fontSize=25;labelBackgroundColor=default;strokeWidth=3;fontStyle=1" parent="WIyWlLk6GJQsqaUBKTNV-1" vertex="1">
          <mxGeometry x="660" y="335" width="60" height="40" as="geometry" />
        </mxCell>
        <mxCell id="9ebifKDBvj5PMloUpHeM-36" value="Yes" style="text;html=1;align=center;verticalAlign=middle;resizable=0;points=[];autosize=1;strokeColor=none;fillColor=none;fontSize=25;labelBackgroundColor=default;strokeWidth=3;fontStyle=1" parent="WIyWlLk6GJQsqaUBKTNV-1" vertex="1">
          <mxGeometry x="495" y="700" width="60" height="40" as="geometry" />
        </mxCell>
        <mxCell id="9ebifKDBvj5PMloUpHeM-35" value="&lt;font style=&quot;font-size: 25px;&quot;&gt;Yes&lt;/font&gt;" style="text;html=1;align=center;verticalAlign=middle;resizable=0;points=[];autosize=1;strokeColor=none;fillColor=none;fontSize=25;labelBackgroundColor=default;strokeWidth=3;fontStyle=1" parent="WIyWlLk6GJQsqaUBKTNV-1" vertex="1">
          <mxGeometry x="495" y="410" width="60" height="40" as="geometry" />
        </mxCell>
        <mxCell id="9ebifKDBvj5PMloUpHeM-42" value="&lt;font style=&quot;font-size: 44px;&quot;&gt;TX flow cahrt&lt;/font&gt;" style="text;html=1;align=center;verticalAlign=middle;whiteSpace=wrap;rounded=0;fontSize=25;fontStyle=1" parent="WIyWlLk6GJQsqaUBKTNV-1" vertex="1">
          <mxGeometry x="365.5" y="-100" width="330" height="30" as="geometry" />
        </mxCell>
        <mxCell id="9ebifKDBvj5PMloUpHeM-43" value="" style="edgeStyle=orthogonalEdgeStyle;rounded=0;orthogonalLoop=1;jettySize=auto;html=1;fontSize=25;strokeWidth=3;fontStyle=1" parent="WIyWlLk6GJQsqaUBKTNV-1" source="9ebifKDBvj5PMloUpHeM-44" target="9ebifKDBvj5PMloUpHeM-46" edge="1">
          <mxGeometry relative="1" as="geometry" />
        </mxCell>
        <mxCell id="9ebifKDBvj5PMloUpHeM-44" value="&lt;span style=&quot;font-size: 25px;&quot;&gt;Begin&lt;/span&gt;" style="ellipse;whiteSpace=wrap;html=1;fontSize=25;strokeWidth=3;fontStyle=1" parent="WIyWlLk6GJQsqaUBKTNV-1" vertex="1">
          <mxGeometry x="1199" y="-30" width="110" height="40" as="geometry" />
        </mxCell>
        <mxCell id="9ebifKDBvj5PMloUpHeM-83" value="" style="edgeStyle=orthogonalEdgeStyle;rounded=0;orthogonalLoop=1;jettySize=auto;html=1;strokeWidth=3;fontStyle=1;fontSize=25;" parent="WIyWlLk6GJQsqaUBKTNV-1" source="9ebifKDBvj5PMloUpHeM-46" target="9ebifKDBvj5PMloUpHeM-82" edge="1">
          <mxGeometry relative="1" as="geometry" />
        </mxCell>
        <mxCell id="9ebifKDBvj5PMloUpHeM-46" value="Read/Verify AES Key" style="whiteSpace=wrap;html=1;fontSize=25;strokeWidth=3;fontStyle=1" parent="WIyWlLk6GJQsqaUBKTNV-1" vertex="1">
          <mxGeometry x="1089" y="40" width="330" height="40" as="geometry" />
        </mxCell>
        <mxCell id="9ebifKDBvj5PMloUpHeM-47" value="" style="edgeStyle=orthogonalEdgeStyle;rounded=0;orthogonalLoop=1;jettySize=auto;html=1;fontSize=25;strokeWidth=3;fontStyle=1" parent="WIyWlLk6GJQsqaUBKTNV-1" source="9ebifKDBvj5PMloUpHeM-48" target="9ebifKDBvj5PMloUpHeM-51" edge="1">
          <mxGeometry relative="1" as="geometry" />
        </mxCell>
        <mxCell id="9ebifKDBvj5PMloUpHeM-48" value="Connect to TCP Endpoint" style="whiteSpace=wrap;html=1;fontSize=25;strokeWidth=3;fontStyle=1" parent="WIyWlLk6GJQsqaUBKTNV-1" vertex="1">
          <mxGeometry x="1089" y="180" width="330" height="40" as="geometry" />
        </mxCell>
        <mxCell id="9ebifKDBvj5PMloUpHeM-49" value="" style="edgeStyle=orthogonalEdgeStyle;rounded=0;orthogonalLoop=1;jettySize=auto;html=1;fontSize=25;strokeWidth=3;fontStyle=1" parent="WIyWlLk6GJQsqaUBKTNV-1" source="9ebifKDBvj5PMloUpHeM-51" target="9ebifKDBvj5PMloUpHeM-53" edge="1">
          <mxGeometry relative="1" as="geometry" />
        </mxCell>
        <mxCell id="9ebifKDBvj5PMloUpHeM-50" value="" style="edgeStyle=orthogonalEdgeStyle;rounded=0;orthogonalLoop=1;jettySize=auto;html=1;fontSize=25;strokeWidth=3;fontStyle=1" parent="WIyWlLk6GJQsqaUBKTNV-1" source="9ebifKDBvj5PMloUpHeM-51" target="9ebifKDBvj5PMloUpHeM-53" edge="1">
          <mxGeometry relative="1" as="geometry" />
        </mxCell>
        <mxCell id="9ebifKDBvj5PMloUpHeM-51" value="&lt;div style=&quot;font-size: 25px;&quot;&gt;Receive IV&lt;br style=&quot;font-size: 25px;&quot;&gt;&lt;/div&gt;" style="whiteSpace=wrap;html=1;fontSize=25;strokeWidth=3;fontStyle=1" parent="WIyWlLk6GJQsqaUBKTNV-1" vertex="1">
          <mxGeometry x="1089" y="250" width="330" height="40" as="geometry" />
        </mxCell>
        <mxCell id="9ebifKDBvj5PMloUpHeM-52" value="" style="edgeStyle=orthogonalEdgeStyle;rounded=0;orthogonalLoop=1;jettySize=auto;html=1;fontSize=25;strokeWidth=3;fontStyle=1" parent="WIyWlLk6GJQsqaUBKTNV-1" source="9ebifKDBvj5PMloUpHeM-53" target="9ebifKDBvj5PMloUpHeM-56" edge="1">
          <mxGeometry relative="1" as="geometry">
            <Array as="points">
              <mxPoint x="1254" y="412" />
              <mxPoint x="1255" y="412" />
            </Array>
          </mxGeometry>
        </mxCell>
        <mxCell id="9ebifKDBvj5PMloUpHeM-53" value="T&lt;sub style=&quot;font-size: 25px;&quot;&gt;p&lt;/sub&gt;=0 ms &amp;amp; Frame&lt;sub style=&quot;font-size: 25px;&quot;&gt;N&lt;/sub&gt;= 0" style="whiteSpace=wrap;html=1;fontSize=25;strokeWidth=3;fontStyle=1" parent="WIyWlLk6GJQsqaUBKTNV-1" vertex="1">
          <mxGeometry x="1089" y="320" width="330" height="40" as="geometry" />
        </mxCell>
        <mxCell id="9ebifKDBvj5PMloUpHeM-54" value="" style="edgeStyle=orthogonalEdgeStyle;rounded=0;orthogonalLoop=1;jettySize=auto;html=1;entryX=0.5;entryY=1;entryDx=0;entryDy=0;fontSize=25;strokeWidth=3;fontStyle=1" parent="WIyWlLk6GJQsqaUBKTNV-1" source="9ebifKDBvj5PMloUpHeM-56" target="9ebifKDBvj5PMloUpHeM-58" edge="1">
          <mxGeometry relative="1" as="geometry" />
        </mxCell>
        <mxCell id="9ebifKDBvj5PMloUpHeM-55" style="edgeStyle=orthogonalEdgeStyle;rounded=0;orthogonalLoop=1;jettySize=auto;html=1;exitX=0.5;exitY=1;exitDx=0;exitDy=0;entryX=0.5;entryY=0;entryDx=0;entryDy=0;strokeWidth=3;fontStyle=1;fontSize=25;" parent="WIyWlLk6GJQsqaUBKTNV-1" source="9ebifKDBvj5PMloUpHeM-56" target="9ebifKDBvj5PMloUpHeM-65" edge="1">
          <mxGeometry relative="1" as="geometry">
            <mxPoint x="1255" y="625.6300000000001" as="targetPoint" />
          </mxGeometry>
        </mxCell>
        <mxCell id="9ebifKDBvj5PMloUpHeM-56" value="&lt;font style=&quot;font-size: 25px;&quot;&gt;T&lt;sub style=&quot;font-size: 25px;&quot;&gt;c&amp;nbsp;&lt;/sub&gt;- T&lt;sub style=&quot;font-size: 25px;&quot;&gt;p&amp;nbsp;&lt;/sub&gt;&amp;gt; 10 ms&lt;/font&gt;" style="rhombus;whiteSpace=wrap;html=1;fontSize=25;strokeWidth=3;fontStyle=1" parent="WIyWlLk6GJQsqaUBKTNV-1" vertex="1">
          <mxGeometry x="1130" y="465" width="250" height="90" as="geometry" />
        </mxCell>
        <mxCell id="9ebifKDBvj5PMloUpHeM-57" style="edgeStyle=orthogonalEdgeStyle;rounded=0;orthogonalLoop=1;jettySize=auto;html=1;entryX=0.5;entryY=0;entryDx=0;entryDy=0;fontSize=25;exitX=0.5;exitY=0;exitDx=0;exitDy=0;strokeWidth=3;fontStyle=1" parent="WIyWlLk6GJQsqaUBKTNV-1" source="9ebifKDBvj5PMloUpHeM-86" target="9ebifKDBvj5PMloUpHeM-56" edge="1">
          <mxGeometry relative="1" as="geometry">
            <mxPoint x="1260" y="445" as="targetPoint" />
            <Array as="points">
              <mxPoint x="1489" y="380" />
              <mxPoint x="1255" y="380" />
            </Array>
          </mxGeometry>
        </mxCell>
        <mxCell id="9ebifKDBvj5PMloUpHeM-88" value="" style="edgeStyle=orthogonalEdgeStyle;rounded=0;orthogonalLoop=1;jettySize=auto;html=1;strokeWidth=3;fontStyle=1;fontSize=25;" parent="WIyWlLk6GJQsqaUBKTNV-1" source="9ebifKDBvj5PMloUpHeM-58" target="9ebifKDBvj5PMloUpHeM-86" edge="1">
          <mxGeometry relative="1" as="geometry" />
        </mxCell>
        <mxCell id="9ebifKDBvj5PMloUpHeM-58" value="Display Frame" style="whiteSpace=wrap;html=1;fontSize=25;strokeWidth=3;fontStyle=1" parent="WIyWlLk6GJQsqaUBKTNV-1" vertex="1">
          <mxGeometry x="1399" y="447.5" width="180" height="32.5" as="geometry" />
        </mxCell>
        <mxCell id="9ebifKDBvj5PMloUpHeM-61" value="" style="edgeStyle=orthogonalEdgeStyle;rounded=0;orthogonalLoop=1;jettySize=auto;html=1;fontSize=25;strokeWidth=3;fontStyle=1" parent="WIyWlLk6GJQsqaUBKTNV-1" target="9ebifKDBvj5PMloUpHeM-65" edge="1">
          <mxGeometry relative="1" as="geometry">
            <mxPoint x="1255" y="718.75" as="sourcePoint" />
          </mxGeometry>
        </mxCell>
        <mxCell id="9ebifKDBvj5PMloUpHeM-64" value="" style="edgeStyle=orthogonalEdgeStyle;rounded=0;orthogonalLoop=1;jettySize=auto;html=1;fontSize=25;strokeWidth=3;fontStyle=1" parent="WIyWlLk6GJQsqaUBKTNV-1" source="9ebifKDBvj5PMloUpHeM-65" target="9ebifKDBvj5PMloUpHeM-71" edge="1">
          <mxGeometry relative="1" as="geometry" />
        </mxCell>
        <mxCell id="9ebifKDBvj5PMloUpHeM-89" style="edgeStyle=orthogonalEdgeStyle;rounded=0;orthogonalLoop=1;jettySize=auto;html=1;exitX=0;exitY=0.5;exitDx=0;exitDy=0;entryX=0.5;entryY=1;entryDx=0;entryDy=0;strokeWidth=3;fontStyle=1;fontSize=25;" parent="WIyWlLk6GJQsqaUBKTNV-1" source="9ebifKDBvj5PMloUpHeM-65" target="9ebifKDBvj5PMloUpHeM-69" edge="1">
          <mxGeometry relative="1" as="geometry" />
        </mxCell>
        <mxCell id="9ebifKDBvj5PMloUpHeM-65" value="Offset &amp;lt;&amp;nbsp;&lt;div style=&quot;font-size: 25px;&quot;&gt;Frame size&lt;/div&gt;" style="rhombus;whiteSpace=wrap;html=1;fontSize=25;strokeWidth=3;fontStyle=1" parent="WIyWlLk6GJQsqaUBKTNV-1" vertex="1">
          <mxGeometry x="1160" y="630" width="190" height="90" as="geometry" />
        </mxCell>
        <mxCell id="9ebifKDBvj5PMloUpHeM-68" style="edgeStyle=orthogonalEdgeStyle;rounded=0;orthogonalLoop=1;jettySize=auto;html=1;entryX=0.5;entryY=0;entryDx=0;entryDy=0;exitX=0.5;exitY=0;exitDx=0;exitDy=0;fontSize=25;strokeWidth=3;fontStyle=1" parent="WIyWlLk6GJQsqaUBKTNV-1" source="9ebifKDBvj5PMloUpHeM-69" target="9ebifKDBvj5PMloUpHeM-56" edge="1">
          <mxGeometry relative="1" as="geometry">
            <Array as="points">
              <mxPoint x="1050" y="380" />
              <mxPoint x="1255" y="380" />
            </Array>
          </mxGeometry>
        </mxCell>
        <mxCell id="9ebifKDBvj5PMloUpHeM-69" value="Decode/Verify" style="whiteSpace=wrap;html=1;fontSize=25;strokeWidth=3;fontStyle=1" parent="WIyWlLk6GJQsqaUBKTNV-1" vertex="1">
          <mxGeometry x="950" y="565" width="200" height="33.13" as="geometry" />
        </mxCell>
        <mxCell id="9ebifKDBvj5PMloUpHeM-90" style="edgeStyle=orthogonalEdgeStyle;rounded=0;orthogonalLoop=1;jettySize=auto;html=1;entryX=0.5;entryY=1;entryDx=0;entryDy=0;strokeWidth=3;fontStyle=1;fontSize=25;" parent="WIyWlLk6GJQsqaUBKTNV-1" source="9ebifKDBvj5PMloUpHeM-71" target="9ebifKDBvj5PMloUpHeM-69" edge="1">
          <mxGeometry relative="1" as="geometry" />
        </mxCell>
        <mxCell id="9ebifKDBvj5PMloUpHeM-71" value="Sleep 1 ms" style="whiteSpace=wrap;html=1;fontSize=25;strokeWidth=3;fontStyle=1" parent="WIyWlLk6GJQsqaUBKTNV-1" vertex="1">
          <mxGeometry x="1169" y="800" width="170" height="30" as="geometry" />
        </mxCell>
        <mxCell id="9ebifKDBvj5PMloUpHeM-74" value="Yes" style="text;html=1;align=center;verticalAlign=middle;resizable=0;points=[];autosize=1;strokeColor=none;fillColor=none;fontSize=25;labelBackgroundColor=default;strokeWidth=3;fontStyle=1" parent="WIyWlLk6GJQsqaUBKTNV-1" vertex="1">
          <mxGeometry x="1084" y="650" width="60" height="40" as="geometry" />
        </mxCell>
        <mxCell id="9ebifKDBvj5PMloUpHeM-75" value="&lt;font style=&quot;font-size: 25px;&quot;&gt;Yes&lt;/font&gt;" style="text;html=1;align=center;verticalAlign=middle;resizable=0;points=[];autosize=1;strokeColor=none;fillColor=none;fontSize=25;labelBackgroundColor=default;strokeWidth=3;fontStyle=1" parent="WIyWlLk6GJQsqaUBKTNV-1" vertex="1">
          <mxGeometry x="1389" y="490" width="60" height="40" as="geometry" />
        </mxCell>
        <mxCell id="9ebifKDBvj5PMloUpHeM-76" value="No" style="text;html=1;align=center;verticalAlign=middle;resizable=0;points=[];autosize=1;strokeColor=none;fillColor=none;fontSize=25;labelBackgroundColor=default;strokeWidth=3;fontStyle=1" parent="WIyWlLk6GJQsqaUBKTNV-1" vertex="1">
          <mxGeometry x="1224" y="740" width="60" height="40" as="geometry" />
        </mxCell>
        <mxCell id="9ebifKDBvj5PMloUpHeM-77" value="&lt;font style=&quot;font-size: 25px;&quot;&gt;No&lt;/font&gt;" style="text;html=1;align=center;verticalAlign=middle;resizable=0;points=[];autosize=1;strokeColor=none;fillColor=none;fontSize=25;labelBackgroundColor=default;strokeWidth=3;fontStyle=1" parent="WIyWlLk6GJQsqaUBKTNV-1" vertex="1">
          <mxGeometry x="1225" y="565" width="60" height="40" as="geometry" />
        </mxCell>
        <mxCell id="9ebifKDBvj5PMloUpHeM-78" value="&lt;font style=&quot;font-size: 44px;&quot;&gt;&lt;span&gt;RX flow cahrt&lt;/span&gt;&lt;/font&gt;" style="text;html=1;align=center;verticalAlign=middle;whiteSpace=wrap;rounded=0;fontStyle=1" parent="WIyWlLk6GJQsqaUBKTNV-1" vertex="1">
          <mxGeometry x="1099" y="-100" width="330" height="30" as="geometry" />
        </mxCell>
        <mxCell id="9ebifKDBvj5PMloUpHeM-85" style="edgeStyle=orthogonalEdgeStyle;rounded=0;orthogonalLoop=1;jettySize=auto;html=1;exitX=0.5;exitY=1;exitDx=0;exitDy=0;entryX=0.5;entryY=0;entryDx=0;entryDy=0;strokeWidth=3;fontStyle=1;fontSize=25;" parent="WIyWlLk6GJQsqaUBKTNV-1" source="9ebifKDBvj5PMloUpHeM-82" target="9ebifKDBvj5PMloUpHeM-48" edge="1">
          <mxGeometry relative="1" as="geometry" />
        </mxCell>
        <mxCell id="9ebifKDBvj5PMloUpHeM-82" value="Bind/Listen TCP Port" style="whiteSpace=wrap;html=1;fontSize=25;strokeWidth=3;fontStyle=1" parent="WIyWlLk6GJQsqaUBKTNV-1" vertex="1">
          <mxGeometry x="1089" y="110" width="330" height="40" as="geometry" />
        </mxCell>
        <mxCell id="9ebifKDBvj5PMloUpHeM-86" value="T&lt;sub style=&quot;font-size: 25px;&quot;&gt;p&lt;/sub&gt;+= 10 ms &amp;amp; Frame&lt;sub style=&quot;font-size: 25px;&quot;&gt;N&lt;/sub&gt;++" style="whiteSpace=wrap;html=1;fontSize=25;strokeWidth=3;fontStyle=1" parent="WIyWlLk6GJQsqaUBKTNV-1" vertex="1">
          <mxGeometry x="1339" y="396.87" width="300" height="33.13" as="geometry" />
        </mxCell>
        <mxCell id="9ebifKDBvj5PMloUpHeM-97" value="" style="edgeStyle=orthogonalEdgeStyle;rounded=0;orthogonalLoop=1;jettySize=auto;html=1;fontSize=22;entryX=0.5;entryY=0;entryDx=0;entryDy=0;strokeWidth=3;" parent="WIyWlLk6GJQsqaUBKTNV-1" source="9ebifKDBvj5PMloUpHeM-92" target="9ebifKDBvj5PMloUpHeM-106" edge="1">
          <mxGeometry relative="1" as="geometry">
            <mxPoint x="490.0000000000002" y="1262.9999999999995" as="targetPoint" />
          </mxGeometry>
        </mxCell>
        <mxCell id="9ebifKDBvj5PMloUpHeM-92" value="IV" style="text;html=1;align=center;verticalAlign=middle;resizable=0;points=[];autosize=1;strokeColor=none;fillColor=none;fontSize=22;strokeWidth=3;" parent="WIyWlLk6GJQsqaUBKTNV-1" vertex="1">
          <mxGeometry x="470" y="1163" width="40" height="40" as="geometry" />
        </mxCell>
        <mxCell id="9ebifKDBvj5PMloUpHeM-103" style="edgeStyle=orthogonalEdgeStyle;rounded=0;orthogonalLoop=1;jettySize=auto;html=1;entryX=0;entryY=0.5;entryDx=0;entryDy=0;fontSize=22;strokeWidth=3;" parent="WIyWlLk6GJQsqaUBKTNV-1" source="9ebifKDBvj5PMloUpHeM-93" target="9ebifKDBvj5PMloUpHeM-106" edge="1">
          <mxGeometry relative="1" as="geometry">
            <mxPoint x="420.0000000000002" y="1286.5" as="targetPoint" />
          </mxGeometry>
        </mxCell>
        <mxCell id="9ebifKDBvj5PMloUpHeM-93" value="Key" style="text;html=1;align=center;verticalAlign=middle;resizable=0;points=[];autosize=1;strokeColor=none;fillColor=none;fontSize=22;strokeWidth=3;" parent="WIyWlLk6GJQsqaUBKTNV-1" vertex="1">
          <mxGeometry x="310" y="1266.5" width="60" height="40" as="geometry" />
        </mxCell>
        <mxCell id="9ebifKDBvj5PMloUpHeM-104" style="edgeStyle=orthogonalEdgeStyle;rounded=0;orthogonalLoop=1;jettySize=auto;html=1;entryX=0;entryY=0.5;entryDx=0;entryDy=0;fontSize=22;strokeWidth=3;" parent="WIyWlLk6GJQsqaUBKTNV-1" source="9ebifKDBvj5PMloUpHeM-94" target="9ebifKDBvj5PMloUpHeM-98" edge="1">
          <mxGeometry relative="1" as="geometry" />
        </mxCell>
        <mxCell id="9ebifKDBvj5PMloUpHeM-94" value="Plaintext" style="text;html=1;align=center;verticalAlign=middle;resizable=0;points=[];autosize=1;strokeColor=none;fillColor=none;fontSize=22;strokeWidth=3;" parent="WIyWlLk6GJQsqaUBKTNV-1" vertex="1">
          <mxGeometry x="320" y="1370" width="110" height="40" as="geometry" />
        </mxCell>
        <mxCell id="9ebifKDBvj5PMloUpHeM-95" value="Ciphertext" style="text;html=1;align=center;verticalAlign=middle;resizable=0;points=[];autosize=1;strokeColor=none;fillColor=none;fontSize=22;strokeWidth=3;" parent="WIyWlLk6GJQsqaUBKTNV-1" vertex="1">
          <mxGeometry x="429" y="1445" width="120" height="40" as="geometry" />
        </mxCell>
        <mxCell id="9ebifKDBvj5PMloUpHeM-102" style="edgeStyle=orthogonalEdgeStyle;rounded=0;orthogonalLoop=1;jettySize=auto;html=1;exitX=0.5;exitY=1;exitDx=0;exitDy=0;entryX=0.5;entryY=0;entryDx=0;entryDy=0;fontSize=22;strokeWidth=3;" parent="WIyWlLk6GJQsqaUBKTNV-1" source="9ebifKDBvj5PMloUpHeM-106" target="9ebifKDBvj5PMloUpHeM-98" edge="1">
          <mxGeometry relative="1" as="geometry">
            <mxPoint x="490.0000000000002" y="1310" as="sourcePoint" />
          </mxGeometry>
        </mxCell>
        <mxCell id="9ebifKDBvj5PMloUpHeM-101" value="" style="group;fontSize=22;strokeWidth=3;" parent="WIyWlLk6GJQsqaUBKTNV-1" vertex="1" connectable="0">
          <mxGeometry x="470" y="1370" width="40" height="40" as="geometry" />
        </mxCell>
        <mxCell id="9ebifKDBvj5PMloUpHeM-98" value="" style="ellipse;whiteSpace=wrap;html=1;aspect=fixed;fillColor=none;fontSize=22;strokeWidth=3;" parent="9ebifKDBvj5PMloUpHeM-101" vertex="1">
          <mxGeometry width="40" height="40" as="geometry" />
        </mxCell>
        <mxCell id="9ebifKDBvj5PMloUpHeM-99" style="edgeStyle=orthogonalEdgeStyle;rounded=0;orthogonalLoop=1;jettySize=auto;html=1;entryX=0.5;entryY=1;entryDx=0;entryDy=0;exitX=0.5;exitY=0;exitDx=0;exitDy=0;endArrow=none;endFill=0;fontSize=22;strokeWidth=3;" parent="9ebifKDBvj5PMloUpHeM-101" source="9ebifKDBvj5PMloUpHeM-98" target="9ebifKDBvj5PMloUpHeM-98" edge="1">
          <mxGeometry relative="1" as="geometry">
            <Array as="points">
              <mxPoint x="20" />
              <mxPoint x="20" y="40" />
            </Array>
          </mxGeometry>
        </mxCell>
        <mxCell id="9ebifKDBvj5PMloUpHeM-100" style="edgeStyle=orthogonalEdgeStyle;rounded=0;orthogonalLoop=1;jettySize=auto;html=1;exitX=0;exitY=0.5;exitDx=0;exitDy=0;entryX=1;entryY=0.5;entryDx=0;entryDy=0;endArrow=none;endFill=0;fontSize=22;strokeWidth=3;" parent="9ebifKDBvj5PMloUpHeM-101" source="9ebifKDBvj5PMloUpHeM-98" target="9ebifKDBvj5PMloUpHeM-98" edge="1">
          <mxGeometry relative="1" as="geometry">
            <Array as="points">
              <mxPoint x="10" y="20" />
              <mxPoint x="10" y="20" />
            </Array>
          </mxGeometry>
        </mxCell>
        <mxCell id="9ebifKDBvj5PMloUpHeM-105" style="edgeStyle=orthogonalEdgeStyle;rounded=0;orthogonalLoop=1;jettySize=auto;html=1;exitX=0.5;exitY=1;exitDx=0;exitDy=0;entryX=0.514;entryY=-0.117;entryDx=0;entryDy=0;entryPerimeter=0;fontSize=22;strokeWidth=3;" parent="WIyWlLk6GJQsqaUBKTNV-1" source="9ebifKDBvj5PMloUpHeM-98" target="9ebifKDBvj5PMloUpHeM-95" edge="1">
          <mxGeometry relative="1" as="geometry" />
        </mxCell>
        <mxCell id="9ebifKDBvj5PMloUpHeM-106" value="&lt;meta charset=&quot;utf-8&quot;&gt;&lt;span style=&quot;color: rgb(0, 0, 0); font-family: Helvetica; font-size: 22px; font-style: normal; font-variant-ligatures: normal; font-variant-caps: normal; font-weight: 400; letter-spacing: normal; orphans: 2; text-align: center; text-indent: 0px; text-transform: none; widows: 2; word-spacing: 0px; -webkit-text-stroke-width: 0px; white-space: normal; background-color: rgb(251, 251, 251); text-decoration-thickness: initial; text-decoration-style: initial; text-decoration-color: initial; display: inline !important; float: none;&quot;&gt;Block Cipher&lt;/span&gt;" style="rounded=1;whiteSpace=wrap;html=1;strokeWidth=3;" parent="WIyWlLk6GJQsqaUBKTNV-1" vertex="1">
          <mxGeometry x="420" y="1256.5" width="140" height="60" as="geometry" />
        </mxCell>
        <mxCell id="9ebifKDBvj5PMloUpHeM-107" style="edgeStyle=orthogonalEdgeStyle;rounded=0;orthogonalLoop=1;jettySize=auto;html=1;entryX=0;entryY=0.5;entryDx=0;entryDy=0;fontSize=22;strokeWidth=3;" parent="WIyWlLk6GJQsqaUBKTNV-1" target="9ebifKDBvj5PMloUpHeM-118" edge="1">
          <mxGeometry relative="1" as="geometry">
            <mxPoint x="740.0000000000002" y="1286.5" as="targetPoint" />
            <mxPoint x="690" y="1286.5" as="sourcePoint" />
          </mxGeometry>
        </mxCell>
        <mxCell id="9ebifKDBvj5PMloUpHeM-108" value="Key" style="text;html=1;align=center;verticalAlign=middle;resizable=0;points=[];autosize=1;strokeColor=none;fillColor=none;fontSize=22;strokeWidth=3;" parent="WIyWlLk6GJQsqaUBKTNV-1" vertex="1">
          <mxGeometry x="630" y="1266.5" width="60" height="40" as="geometry" />
        </mxCell>
        <mxCell id="9ebifKDBvj5PMloUpHeM-109" style="edgeStyle=orthogonalEdgeStyle;rounded=0;orthogonalLoop=1;jettySize=auto;html=1;entryX=0;entryY=0.5;entryDx=0;entryDy=0;fontSize=22;strokeWidth=3;" parent="WIyWlLk6GJQsqaUBKTNV-1" source="9ebifKDBvj5PMloUpHeM-110" target="9ebifKDBvj5PMloUpHeM-114" edge="1">
          <mxGeometry relative="1" as="geometry" />
        </mxCell>
        <mxCell id="9ebifKDBvj5PMloUpHeM-110" value="Plaintext" style="text;html=1;align=center;verticalAlign=middle;resizable=0;points=[];autosize=1;strokeColor=none;fillColor=none;fontSize=22;strokeWidth=3;" parent="WIyWlLk6GJQsqaUBKTNV-1" vertex="1">
          <mxGeometry x="640" y="1370" width="110" height="40" as="geometry" />
        </mxCell>
        <mxCell id="9ebifKDBvj5PMloUpHeM-111" value="Ciphertext" style="text;html=1;align=center;verticalAlign=middle;resizable=0;points=[];autosize=1;strokeColor=none;fillColor=none;fontSize=22;strokeWidth=3;" parent="WIyWlLk6GJQsqaUBKTNV-1" vertex="1">
          <mxGeometry x="749" y="1445" width="120" height="40" as="geometry" />
        </mxCell>
        <mxCell id="9ebifKDBvj5PMloUpHeM-112" style="edgeStyle=orthogonalEdgeStyle;rounded=0;orthogonalLoop=1;jettySize=auto;html=1;exitX=0.5;exitY=1;exitDx=0;exitDy=0;entryX=0.5;entryY=0;entryDx=0;entryDy=0;fontSize=22;strokeWidth=3;" parent="WIyWlLk6GJQsqaUBKTNV-1" source="9ebifKDBvj5PMloUpHeM-118" target="9ebifKDBvj5PMloUpHeM-114" edge="1">
          <mxGeometry relative="1" as="geometry">
            <mxPoint x="810.0000000000002" y="1310" as="sourcePoint" />
          </mxGeometry>
        </mxCell>
        <mxCell id="9ebifKDBvj5PMloUpHeM-113" value="" style="group;fontSize=22;strokeWidth=3;" parent="WIyWlLk6GJQsqaUBKTNV-1" vertex="1" connectable="0">
          <mxGeometry x="790" y="1370" width="40" height="40" as="geometry" />
        </mxCell>
        <mxCell id="9ebifKDBvj5PMloUpHeM-114" value="" style="ellipse;whiteSpace=wrap;html=1;aspect=fixed;fillColor=none;fontSize=22;strokeWidth=3;" parent="9ebifKDBvj5PMloUpHeM-113" vertex="1">
          <mxGeometry width="40" height="40" as="geometry" />
        </mxCell>
        <mxCell id="9ebifKDBvj5PMloUpHeM-115" style="edgeStyle=orthogonalEdgeStyle;rounded=0;orthogonalLoop=1;jettySize=auto;html=1;entryX=0.5;entryY=1;entryDx=0;entryDy=0;exitX=0.5;exitY=0;exitDx=0;exitDy=0;endArrow=none;endFill=0;fontSize=22;strokeWidth=3;" parent="9ebifKDBvj5PMloUpHeM-113" source="9ebifKDBvj5PMloUpHeM-114" target="9ebifKDBvj5PMloUpHeM-114" edge="1">
          <mxGeometry relative="1" as="geometry">
            <Array as="points">
              <mxPoint x="20" />
              <mxPoint x="20" y="40" />
            </Array>
          </mxGeometry>
        </mxCell>
        <mxCell id="9ebifKDBvj5PMloUpHeM-116" style="edgeStyle=orthogonalEdgeStyle;rounded=0;orthogonalLoop=1;jettySize=auto;html=1;exitX=0;exitY=0.5;exitDx=0;exitDy=0;entryX=1;entryY=0.5;entryDx=0;entryDy=0;endArrow=none;endFill=0;fontSize=22;strokeWidth=3;" parent="9ebifKDBvj5PMloUpHeM-113" source="9ebifKDBvj5PMloUpHeM-114" target="9ebifKDBvj5PMloUpHeM-114" edge="1">
          <mxGeometry relative="1" as="geometry">
            <Array as="points">
              <mxPoint x="10" y="20" />
              <mxPoint x="10" y="20" />
            </Array>
          </mxGeometry>
        </mxCell>
        <mxCell id="9ebifKDBvj5PMloUpHeM-117" style="edgeStyle=orthogonalEdgeStyle;rounded=0;orthogonalLoop=1;jettySize=auto;html=1;exitX=0.5;exitY=1;exitDx=0;exitDy=0;entryX=0.514;entryY=-0.117;entryDx=0;entryDy=0;entryPerimeter=0;fontSize=22;strokeWidth=3;" parent="WIyWlLk6GJQsqaUBKTNV-1" source="9ebifKDBvj5PMloUpHeM-114" target="9ebifKDBvj5PMloUpHeM-111" edge="1">
          <mxGeometry relative="1" as="geometry" />
        </mxCell>
        <mxCell id="9ebifKDBvj5PMloUpHeM-118" value="&lt;meta charset=&quot;utf-8&quot;&gt;&lt;span style=&quot;color: rgb(0, 0, 0); font-family: Helvetica; font-size: 22px; font-style: normal; font-variant-ligatures: normal; font-variant-caps: normal; font-weight: 400; letter-spacing: normal; orphans: 2; text-align: center; text-indent: 0px; text-transform: none; widows: 2; word-spacing: 0px; -webkit-text-stroke-width: 0px; white-space: normal; background-color: rgb(251, 251, 251); text-decoration-thickness: initial; text-decoration-style: initial; text-decoration-color: initial; display: inline !important; float: none;&quot;&gt;Block Cipher&lt;/span&gt;" style="rounded=1;whiteSpace=wrap;html=1;strokeWidth=3;" parent="WIyWlLk6GJQsqaUBKTNV-1" vertex="1">
          <mxGeometry x="740" y="1256.5" width="140" height="60" as="geometry" />
        </mxCell>
        <mxCell id="9ebifKDBvj5PMloUpHeM-119" style="edgeStyle=orthogonalEdgeStyle;rounded=0;orthogonalLoop=1;jettySize=auto;html=1;entryX=0;entryY=0.5;entryDx=0;entryDy=0;fontSize=22;strokeWidth=3;" parent="WIyWlLk6GJQsqaUBKTNV-1" source="9ebifKDBvj5PMloUpHeM-120" target="9ebifKDBvj5PMloUpHeM-130" edge="1">
          <mxGeometry relative="1" as="geometry">
            <mxPoint x="1080.0000000000002" y="1286.5" as="targetPoint" />
          </mxGeometry>
        </mxCell>
        <mxCell id="9ebifKDBvj5PMloUpHeM-120" value="Key" style="text;html=1;align=center;verticalAlign=middle;resizable=0;points=[];autosize=1;strokeColor=none;fillColor=none;fontSize=22;strokeWidth=3;" parent="WIyWlLk6GJQsqaUBKTNV-1" vertex="1">
          <mxGeometry x="970" y="1266.5" width="60" height="40" as="geometry" />
        </mxCell>
        <mxCell id="9ebifKDBvj5PMloUpHeM-121" style="edgeStyle=orthogonalEdgeStyle;rounded=0;orthogonalLoop=1;jettySize=auto;html=1;entryX=0;entryY=0.5;entryDx=0;entryDy=0;fontSize=22;strokeWidth=3;" parent="WIyWlLk6GJQsqaUBKTNV-1" source="9ebifKDBvj5PMloUpHeM-122" target="9ebifKDBvj5PMloUpHeM-126" edge="1">
          <mxGeometry relative="1" as="geometry" />
        </mxCell>
        <mxCell id="9ebifKDBvj5PMloUpHeM-122" value="Plaintext" style="text;html=1;align=center;verticalAlign=middle;resizable=0;points=[];autosize=1;strokeColor=none;fillColor=none;fontSize=22;strokeWidth=3;" parent="WIyWlLk6GJQsqaUBKTNV-1" vertex="1">
          <mxGeometry x="980" y="1370" width="110" height="40" as="geometry" />
        </mxCell>
        <mxCell id="9ebifKDBvj5PMloUpHeM-123" value="Ciphertext" style="text;html=1;align=center;verticalAlign=middle;resizable=0;points=[];autosize=1;strokeColor=none;fillColor=none;fontSize=22;strokeWidth=3;" parent="WIyWlLk6GJQsqaUBKTNV-1" vertex="1">
          <mxGeometry x="1089" y="1445" width="120" height="40" as="geometry" />
        </mxCell>
        <mxCell id="9ebifKDBvj5PMloUpHeM-124" style="edgeStyle=orthogonalEdgeStyle;rounded=0;orthogonalLoop=1;jettySize=auto;html=1;exitX=0.5;exitY=1;exitDx=0;exitDy=0;entryX=0.5;entryY=0;entryDx=0;entryDy=0;fontSize=22;strokeWidth=3;" parent="WIyWlLk6GJQsqaUBKTNV-1" source="9ebifKDBvj5PMloUpHeM-130" target="9ebifKDBvj5PMloUpHeM-126" edge="1">
          <mxGeometry relative="1" as="geometry">
            <mxPoint x="1150.0000000000002" y="1310" as="sourcePoint" />
          </mxGeometry>
        </mxCell>
        <mxCell id="9ebifKDBvj5PMloUpHeM-125" value="" style="group;fontSize=22;strokeWidth=3;" parent="WIyWlLk6GJQsqaUBKTNV-1" vertex="1" connectable="0">
          <mxGeometry x="1130" y="1370" width="40" height="40" as="geometry" />
        </mxCell>
        <mxCell id="9ebifKDBvj5PMloUpHeM-126" value="" style="ellipse;whiteSpace=wrap;html=1;aspect=fixed;fillColor=none;fontSize=22;strokeWidth=3;" parent="9ebifKDBvj5PMloUpHeM-125" vertex="1">
          <mxGeometry width="40" height="40" as="geometry" />
        </mxCell>
        <mxCell id="9ebifKDBvj5PMloUpHeM-127" style="edgeStyle=orthogonalEdgeStyle;rounded=0;orthogonalLoop=1;jettySize=auto;html=1;entryX=0.5;entryY=1;entryDx=0;entryDy=0;exitX=0.5;exitY=0;exitDx=0;exitDy=0;endArrow=none;endFill=0;fontSize=22;strokeWidth=3;" parent="9ebifKDBvj5PMloUpHeM-125" source="9ebifKDBvj5PMloUpHeM-126" target="9ebifKDBvj5PMloUpHeM-126" edge="1">
          <mxGeometry relative="1" as="geometry">
            <Array as="points">
              <mxPoint x="20" />
              <mxPoint x="20" y="40" />
            </Array>
          </mxGeometry>
        </mxCell>
        <mxCell id="9ebifKDBvj5PMloUpHeM-128" style="edgeStyle=orthogonalEdgeStyle;rounded=0;orthogonalLoop=1;jettySize=auto;html=1;exitX=0;exitY=0.5;exitDx=0;exitDy=0;entryX=1;entryY=0.5;entryDx=0;entryDy=0;endArrow=none;endFill=0;fontSize=22;strokeWidth=3;" parent="9ebifKDBvj5PMloUpHeM-125" source="9ebifKDBvj5PMloUpHeM-126" target="9ebifKDBvj5PMloUpHeM-126" edge="1">
          <mxGeometry relative="1" as="geometry">
            <Array as="points">
              <mxPoint x="10" y="20" />
              <mxPoint x="10" y="20" />
            </Array>
          </mxGeometry>
        </mxCell>
        <mxCell id="9ebifKDBvj5PMloUpHeM-129" style="edgeStyle=orthogonalEdgeStyle;rounded=0;orthogonalLoop=1;jettySize=auto;html=1;exitX=0.5;exitY=1;exitDx=0;exitDy=0;entryX=0.514;entryY=-0.117;entryDx=0;entryDy=0;entryPerimeter=0;fontSize=22;strokeWidth=3;" parent="WIyWlLk6GJQsqaUBKTNV-1" source="9ebifKDBvj5PMloUpHeM-126" target="9ebifKDBvj5PMloUpHeM-123" edge="1">
          <mxGeometry relative="1" as="geometry" />
        </mxCell>
        <mxCell id="9ebifKDBvj5PMloUpHeM-130" value="&lt;meta charset=&quot;utf-8&quot;&gt;&lt;span style=&quot;color: rgb(0, 0, 0); font-family: Helvetica; font-size: 22px; font-style: normal; font-variant-ligatures: normal; font-variant-caps: normal; font-weight: 400; letter-spacing: normal; orphans: 2; text-align: center; text-indent: 0px; text-transform: none; widows: 2; word-spacing: 0px; -webkit-text-stroke-width: 0px; white-space: normal; background-color: rgb(251, 251, 251); text-decoration-thickness: initial; text-decoration-style: initial; text-decoration-color: initial; display: inline !important; float: none;&quot;&gt;Block Cipher&lt;/span&gt;" style="rounded=1;whiteSpace=wrap;html=1;strokeWidth=3;" parent="WIyWlLk6GJQsqaUBKTNV-1" vertex="1">
          <mxGeometry x="1080" y="1256.5" width="140" height="60" as="geometry" />
        </mxCell>
        <mxCell id="9ebifKDBvj5PMloUpHeM-132" style="edgeStyle=orthogonalEdgeStyle;rounded=0;orthogonalLoop=1;jettySize=auto;html=1;exitX=0.5;exitY=0;exitDx=0;exitDy=0;entryX=0.5;entryY=0;entryDx=0;entryDy=0;strokeWidth=3;" parent="WIyWlLk6GJQsqaUBKTNV-1" source="9ebifKDBvj5PMloUpHeM-98" target="9ebifKDBvj5PMloUpHeM-118" edge="1">
          <mxGeometry relative="1" as="geometry">
            <Array as="points">
              <mxPoint x="490" y="1340" />
              <mxPoint x="600" y="1340" />
              <mxPoint x="600" y="1200" />
              <mxPoint x="810" y="1200" />
            </Array>
          </mxGeometry>
        </mxCell>
        <mxCell id="9ebifKDBvj5PMloUpHeM-133" style="edgeStyle=orthogonalEdgeStyle;rounded=0;orthogonalLoop=1;jettySize=auto;html=1;exitX=0.5;exitY=0;exitDx=0;exitDy=0;entryX=0.5;entryY=0;entryDx=0;entryDy=0;strokeWidth=3;" parent="WIyWlLk6GJQsqaUBKTNV-1" source="9ebifKDBvj5PMloUpHeM-114" target="9ebifKDBvj5PMloUpHeM-130" edge="1">
          <mxGeometry relative="1" as="geometry">
            <Array as="points">
              <mxPoint x="810" y="1340" />
              <mxPoint x="950" y="1340" />
              <mxPoint x="950" y="1200" />
              <mxPoint x="1150" y="1200" />
            </Array>
          </mxGeometry>
        </mxCell>
        <mxCell id="9ebifKDBvj5PMloUpHeM-134" style="edgeStyle=orthogonalEdgeStyle;rounded=0;orthogonalLoop=1;jettySize=auto;html=1;exitX=0.5;exitY=0;exitDx=0;exitDy=0;strokeWidth=3;" parent="WIyWlLk6GJQsqaUBKTNV-1" edge="1">
          <mxGeometry relative="1" as="geometry">
            <mxPoint x="1150" y="1370" as="sourcePoint" />
            <mxPoint x="1330" y="1200" as="targetPoint" />
            <Array as="points">
              <mxPoint x="1150" y="1340" />
              <mxPoint x="1290" y="1340" />
              <mxPoint x="1290" y="1200" />
            </Array>
          </mxGeometry>
        </mxCell>
        <mxCell id="9ebifKDBvj5PMloUpHeM-137" value="&lt;font style=&quot;font-size: 44px;&quot;&gt;&lt;b&gt;Output feedback mode&lt;/b&gt;&lt;/font&gt;" style="text;html=1;align=center;verticalAlign=middle;whiteSpace=wrap;rounded=0;" parent="WIyWlLk6GJQsqaUBKTNV-1" vertex="1">
          <mxGeometry x="610" y="1100" width="520" height="30" as="geometry" />
        </mxCell>
        <mxCell id="9ebifKDBvj5PMloUpHeM-140" value="" style="rounded=1;whiteSpace=wrap;html=1;strokeWidth=3;opacity=70;fontSize=22;" parent="WIyWlLk6GJQsqaUBKTNV-1" vertex="1">
          <mxGeometry x="320.25" y="1690" width="190" height="230" as="geometry" />
        </mxCell>
        <mxCell id="9ebifKDBvj5PMloUpHeM-145" value="&lt;font style=&quot;font-size: 27px;&quot;&gt;&lt;b&gt;Photos: PGM files&lt;/b&gt;&lt;/font&gt;" style="text;html=1;align=center;verticalAlign=middle;whiteSpace=wrap;rounded=0;strokeWidth=3;fontSize=22;" parent="WIyWlLk6GJQsqaUBKTNV-1" vertex="1">
          <mxGeometry x="330.25" y="1640" width="279.75" height="30" as="geometry" />
        </mxCell>
        <mxCell id="9ebifKDBvj5PMloUpHeM-150" value="" style="shape=curlyBracket;whiteSpace=wrap;html=1;rounded=1;labelPosition=left;verticalLabelPosition=middle;align=right;verticalAlign=middle;strokeWidth=3;fontSize=22;" parent="WIyWlLk6GJQsqaUBKTNV-1" vertex="1">
          <mxGeometry x="730.25" y="1723.13" width="20" height="133.75" as="geometry" />
        </mxCell>
        <mxCell id="9ebifKDBvj5PMloUpHeM-151" value="&lt;span style=&quot;background-color: initial;&quot;&gt;Magic number:&lt;/span&gt;&lt;span style=&quot;background-color: initial; white-space: pre;&quot;&gt;&#x9;&lt;/span&gt;&lt;span style=&quot;background-color: initial;&quot;&gt; P5&lt;/span&gt;&lt;br&gt;&lt;span style=&quot;background-color: initial;&quot;&gt;Width: &lt;/span&gt;&lt;span style=&quot;background-color: initial; white-space: pre;&quot;&gt;&#x9;&lt;/span&gt;&lt;span style=&quot;background-color: initial; white-space: pre;&quot;&gt;&#x9;&lt;span style=&quot;white-space: pre;&quot;&gt;&#x9;&lt;/span&gt;&lt;/span&gt;&lt;span style=&quot;background-color: initial;&quot;&gt;320&lt;/span&gt;&lt;br&gt;&lt;span style=&quot;background-color: initial;&quot;&gt;Height: &lt;/span&gt;&lt;span style=&quot;background-color: initial; white-space: pre;&quot;&gt;&#x9;&lt;/span&gt;&lt;span style=&quot;background-color: initial; white-space: pre;&quot;&gt;&#x9;&lt;span style=&quot;white-space: pre;&quot;&gt;&#x9;&lt;/span&gt;&lt;/span&gt;&lt;span style=&quot;background-color: initial;&quot;&gt;240&lt;/span&gt;&lt;br&gt;&lt;span style=&quot;background-color: initial;&quot;&gt;Maximum: &lt;/span&gt;&lt;span style=&quot;background-color: initial; white-space: pre;&quot;&gt;&#x9;&lt;span style=&quot;white-space: pre;&quot;&gt;&#x9;&lt;/span&gt;&lt;/span&gt;&lt;span style=&quot;background-color: initial;&quot;&gt;255&lt;/span&gt;" style="text;html=1;align=left;verticalAlign=middle;whiteSpace=wrap;rounded=0;strokeWidth=3;fontSize=22;" parent="WIyWlLk6GJQsqaUBKTNV-1" vertex="1">
          <mxGeometry x="757.25" y="1720.76" width="256" height="140.5" as="geometry" />
        </mxCell>
        <mxCell id="9ebifKDBvj5PMloUpHeM-166" style="edgeStyle=orthogonalEdgeStyle;rounded=0;orthogonalLoop=1;jettySize=auto;html=1;entryX=0;entryY=0.5;entryDx=0;entryDy=0;fontSize=22;strokeWidth=3;" parent="WIyWlLk6GJQsqaUBKTNV-1" target="9ebifKDBvj5PMloUpHeM-177" edge="1">
          <mxGeometry relative="1" as="geometry">
            <mxPoint x="805.5000000000002" y="2267" as="targetPoint" />
            <mxPoint x="755.5" y="2267" as="sourcePoint" />
          </mxGeometry>
        </mxCell>
        <mxCell id="9ebifKDBvj5PMloUpHeM-167" value="Key" style="text;html=1;align=center;verticalAlign=middle;resizable=0;points=[];autosize=1;strokeColor=none;fillColor=none;fontSize=22;strokeWidth=3;" parent="WIyWlLk6GJQsqaUBKTNV-1" vertex="1">
          <mxGeometry x="695.5" y="2247" width="60" height="40" as="geometry" />
        </mxCell>
        <mxCell id="9ebifKDBvj5PMloUpHeM-168" style="edgeStyle=orthogonalEdgeStyle;rounded=0;orthogonalLoop=1;jettySize=auto;html=1;entryX=0;entryY=0.5;entryDx=0;entryDy=0;fontSize=22;strokeWidth=3;" parent="WIyWlLk6GJQsqaUBKTNV-1" edge="1">
          <mxGeometry relative="1" as="geometry">
            <mxPoint x="716.5" y="2370" as="sourcePoint" />
            <mxPoint x="855.5" y="2369.4999999999995" as="targetPoint" />
          </mxGeometry>
        </mxCell>
        <mxCell id="9ebifKDBvj5PMloUpHeM-169" value="Plaintext" style="text;html=1;align=center;verticalAlign=middle;resizable=0;points=[];autosize=1;strokeColor=none;fillColor=none;fontSize=22;strokeWidth=3;" parent="WIyWlLk6GJQsqaUBKTNV-1" vertex="1">
          <mxGeometry x="436.5" y="2287" width="110" height="40" as="geometry" />
        </mxCell>
        <mxCell id="9ebifKDBvj5PMloUpHeM-171" style="edgeStyle=orthogonalEdgeStyle;rounded=0;orthogonalLoop=1;jettySize=auto;html=1;exitX=0.5;exitY=1;exitDx=0;exitDy=0;entryX=0.5;entryY=0;entryDx=0;entryDy=0;fontSize=22;strokeWidth=3;" parent="WIyWlLk6GJQsqaUBKTNV-1" source="9ebifKDBvj5PMloUpHeM-177" target="9ebifKDBvj5PMloUpHeM-173" edge="1">
          <mxGeometry relative="1" as="geometry">
            <mxPoint x="875.5000000000002" y="2290.5" as="sourcePoint" />
          </mxGeometry>
        </mxCell>
        <mxCell id="9ebifKDBvj5PMloUpHeM-172" value="" style="group;fontSize=22;strokeWidth=3;" parent="WIyWlLk6GJQsqaUBKTNV-1" vertex="1" connectable="0">
          <mxGeometry x="855.5" y="2350.5" width="40" height="40" as="geometry" />
        </mxCell>
        <mxCell id="9ebifKDBvj5PMloUpHeM-173" value="" style="ellipse;whiteSpace=wrap;html=1;aspect=fixed;fillColor=none;fontSize=22;strokeWidth=3;" parent="9ebifKDBvj5PMloUpHeM-172" vertex="1">
          <mxGeometry width="40" height="40" as="geometry" />
        </mxCell>
        <mxCell id="9ebifKDBvj5PMloUpHeM-174" style="edgeStyle=orthogonalEdgeStyle;rounded=0;orthogonalLoop=1;jettySize=auto;html=1;entryX=0.5;entryY=1;entryDx=0;entryDy=0;exitX=0.5;exitY=0;exitDx=0;exitDy=0;endArrow=none;endFill=0;fontSize=22;strokeWidth=3;" parent="9ebifKDBvj5PMloUpHeM-172" source="9ebifKDBvj5PMloUpHeM-173" target="9ebifKDBvj5PMloUpHeM-173" edge="1">
          <mxGeometry relative="1" as="geometry">
            <Array as="points">
              <mxPoint x="20" />
              <mxPoint x="20" y="40" />
            </Array>
          </mxGeometry>
        </mxCell>
        <mxCell id="9ebifKDBvj5PMloUpHeM-175" style="edgeStyle=orthogonalEdgeStyle;rounded=0;orthogonalLoop=1;jettySize=auto;html=1;exitX=0;exitY=0.5;exitDx=0;exitDy=0;entryX=1;entryY=0.5;entryDx=0;entryDy=0;endArrow=none;endFill=0;fontSize=22;strokeWidth=3;" parent="9ebifKDBvj5PMloUpHeM-172" source="9ebifKDBvj5PMloUpHeM-173" target="9ebifKDBvj5PMloUpHeM-173" edge="1">
          <mxGeometry relative="1" as="geometry">
            <Array as="points">
              <mxPoint x="10" y="20" />
              <mxPoint x="10" y="20" />
            </Array>
          </mxGeometry>
        </mxCell>
        <mxCell id="9ebifKDBvj5PMloUpHeM-176" style="edgeStyle=orthogonalEdgeStyle;rounded=0;orthogonalLoop=1;jettySize=auto;html=1;exitX=0.5;exitY=1;exitDx=0;exitDy=0;entryX=0.514;entryY=-0.117;entryDx=0;entryDy=0;entryPerimeter=0;fontSize=22;strokeWidth=3;" parent="WIyWlLk6GJQsqaUBKTNV-1" source="9ebifKDBvj5PMloUpHeM-173" edge="1">
          <mxGeometry relative="1" as="geometry">
            <mxPoint x="876.1799999999998" y="2420.8199999999997" as="targetPoint" />
          </mxGeometry>
        </mxCell>
        <mxCell id="9ebifKDBvj5PMloUpHeM-177" value="&lt;meta charset=&quot;utf-8&quot;&gt;&lt;span style=&quot;color: rgb(0, 0, 0); font-family: Helvetica; font-size: 22px; font-style: normal; font-variant-ligatures: normal; font-variant-caps: normal; font-weight: 400; letter-spacing: normal; orphans: 2; text-align: center; text-indent: 0px; text-transform: none; widows: 2; word-spacing: 0px; -webkit-text-stroke-width: 0px; white-space: normal; background-color: rgb(251, 251, 251); text-decoration-thickness: initial; text-decoration-style: initial; text-decoration-color: initial; display: inline !important; float: none;&quot;&gt;Block Cipher&lt;/span&gt;" style="rounded=1;whiteSpace=wrap;html=1;strokeWidth=3;" parent="WIyWlLk6GJQsqaUBKTNV-1" vertex="1">
          <mxGeometry x="805.5" y="2237" width="140" height="60" as="geometry" />
        </mxCell>
        <mxCell id="9ebifKDBvj5PMloUpHeM-178" value="&lt;font style=&quot;font-size: 22px;&quot;&gt;Data&lt;/font&gt;" style="rounded=1;whiteSpace=wrap;html=1;fillColor=#dae8fc;strokeColor=#6c8ebf;strokeWidth=3;fontSize=22;" parent="WIyWlLk6GJQsqaUBKTNV-1" vertex="1">
          <mxGeometry x="488.5" y="2337" width="220" height="60" as="geometry" />
        </mxCell>
        <mxCell id="9ebifKDBvj5PMloUpHeM-179" value="&lt;font style=&quot;font-size: 22px;&quot;&gt;Frame Number&lt;/font&gt;" style="rounded=1;whiteSpace=wrap;html=1;strokeWidth=3;fontSize=22;" parent="WIyWlLk6GJQsqaUBKTNV-1" vertex="1">
          <mxGeometry x="300.5" y="2337" width="95" height="60" as="geometry" />
        </mxCell>
        <mxCell id="9ebifKDBvj5PMloUpHeM-180" value="&lt;font style=&quot;font-size: 22px;&quot;&gt;Offset&lt;/font&gt;" style="rounded=1;whiteSpace=wrap;html=1;strokeWidth=3;fontSize=22;" parent="WIyWlLk6GJQsqaUBKTNV-1" vertex="1">
          <mxGeometry x="397.5" y="2337" width="89" height="60" as="geometry" />
        </mxCell>
        <mxCell id="9ebifKDBvj5PMloUpHeM-181" value="&lt;font style=&quot;font-size: 22px;&quot;&gt;4 Bytes&lt;/font&gt;" style="text;html=1;align=center;verticalAlign=middle;resizable=0;points=[];autosize=1;strokeColor=none;fillColor=none;fontSize=22;" parent="WIyWlLk6GJQsqaUBKTNV-1" vertex="1">
          <mxGeometry x="300" y="2397" width="100" height="40" as="geometry" />
        </mxCell>
        <mxCell id="9ebifKDBvj5PMloUpHeM-182" value="&lt;font style=&quot;font-size: 22px;&quot;&gt;4 Bytes&lt;/font&gt;" style="text;html=1;align=center;verticalAlign=middle;resizable=0;points=[];autosize=1;strokeColor=none;fillColor=none;fontSize=22;" parent="WIyWlLk6GJQsqaUBKTNV-1" vertex="1">
          <mxGeometry x="392" y="2397" width="100" height="40" as="geometry" />
        </mxCell>
        <mxCell id="9ebifKDBvj5PMloUpHeM-183" value="&lt;font style=&quot;font-size: 22px;&quot;&gt;120 Bytes&lt;/font&gt;" style="text;html=1;align=center;verticalAlign=middle;resizable=0;points=[];autosize=1;strokeColor=none;fillColor=none;fontSize=22;" parent="WIyWlLk6GJQsqaUBKTNV-1" vertex="1">
          <mxGeometry x="536.5" y="2397" width="120" height="40" as="geometry" />
        </mxCell>
        <mxCell id="9ebifKDBvj5PMloUpHeM-186" style="edgeStyle=orthogonalEdgeStyle;rounded=0;orthogonalLoop=1;jettySize=auto;html=1;entryX=0.5;entryY=0;entryDx=0;entryDy=0;strokeWidth=3;" parent="WIyWlLk6GJQsqaUBKTNV-1" source="9ebifKDBvj5PMloUpHeM-185" target="9ebifKDBvj5PMloUpHeM-177" edge="1">
          <mxGeometry relative="1" as="geometry" />
        </mxCell>
        <mxCell id="9ebifKDBvj5PMloUpHeM-185" value="&lt;font style=&quot;font-size: 22px;&quot;&gt;IV&lt;/font&gt;" style="text;html=1;align=center;verticalAlign=middle;resizable=0;points=[];autosize=1;strokeColor=none;fillColor=none;" parent="WIyWlLk6GJQsqaUBKTNV-1" vertex="1">
          <mxGeometry x="856.5" y="2130" width="40" height="40" as="geometry" />
        </mxCell>
        <mxCell id="9ebifKDBvj5PMloUpHeM-187" value="&lt;span style=&quot;text-wrap: nowrap;&quot;&gt;Ciphertext&lt;/span&gt;" style="rounded=1;whiteSpace=wrap;html=1;fillColor=#f8cecc;strokeColor=#b85450;strokeWidth=3;fontSize=22;" parent="WIyWlLk6GJQsqaUBKTNV-1" vertex="1">
          <mxGeometry x="673.5" y="2437" width="404" height="60" as="geometry" />
        </mxCell>
        <mxCell id="9ebifKDBvj5PMloUpHeM-188" value="" style="rounded=1;whiteSpace=wrap;html=1;strokeWidth=3;opacity=70;fontSize=22;" parent="WIyWlLk6GJQsqaUBKTNV-1" vertex="1">
          <mxGeometry x="370.25" y="1720.5" width="190" height="230" as="geometry" />
        </mxCell>
        <mxCell id="9ebifKDBvj5PMloUpHeM-189" value="" style="rounded=1;whiteSpace=wrap;html=1;strokeWidth=3;opacity=70;fontSize=22;" parent="WIyWlLk6GJQsqaUBKTNV-1" vertex="1">
          <mxGeometry x="420.25" y="1750" width="180" height="230" as="geometry" />
        </mxCell>
        <mxCell id="9ebifKDBvj5PMloUpHeM-142" value="&lt;font style=&quot;font-size: 22px;&quot;&gt;Header&lt;/font&gt;" style="rounded=1;whiteSpace=wrap;html=1;strokeWidth=3;fillColor=#d5e8d4;strokeColor=#82b366;opacity=90;fontSize=22;" parent="WIyWlLk6GJQsqaUBKTNV-1" vertex="1">
          <mxGeometry x="440.25" y="1766.01" width="140" height="50" as="geometry" />
        </mxCell>
        <mxCell id="9ebifKDBvj5PMloUpHeM-143" value="&lt;font style=&quot;font-size: 22px;&quot;&gt;Data&lt;/font&gt;" style="rounded=1;whiteSpace=wrap;html=1;strokeWidth=3;fillColor=#f5f5f5;fontColor=#333333;strokeColor=#666666;opacity=90;fontSize=22;" parent="WIyWlLk6GJQsqaUBKTNV-1" vertex="1">
          <mxGeometry x="440.25" y="1830" width="140" height="140" as="geometry" />
        </mxCell>
        <mxCell id="9ebifKDBvj5PMloUpHeM-149" style="edgeStyle=orthogonalEdgeStyle;rounded=0;orthogonalLoop=1;jettySize=auto;html=1;exitX=1;exitY=0.5;exitDx=0;exitDy=0;strokeWidth=3;fontSize=22;" parent="WIyWlLk6GJQsqaUBKTNV-1" source="9ebifKDBvj5PMloUpHeM-142" edge="1">
          <mxGeometry relative="1" as="geometry">
            <mxPoint x="730.25" y="1790.5" as="targetPoint" />
          </mxGeometry>
        </mxCell>
        <mxCell id="9ebifKDBvj5PMloUpHeM-196" style="edgeStyle=orthogonalEdgeStyle;rounded=0;orthogonalLoop=1;jettySize=auto;html=1;exitX=1;exitY=0.5;exitDx=0;exitDy=0;entryX=0.5;entryY=0;entryDx=0;entryDy=0;fontSize=11;strokeWidth=3;" parent="WIyWlLk6GJQsqaUBKTNV-1" source="9ebifKDBvj5PMloUpHeM-152" target="9ebifKDBvj5PMloUpHeM-190" edge="1">
          <mxGeometry relative="1" as="geometry" />
        </mxCell>
        <mxCell id="9ebifKDBvj5PMloUpHeM-152" value="" style="rounded=1;whiteSpace=wrap;html=1;fillColor=#dae8fc;strokeColor=#6c8ebf;strokeWidth=3;fontSize=22;" parent="WIyWlLk6GJQsqaUBKTNV-1" vertex="1">
          <mxGeometry x="494" y="1930" width="63.5" height="30.5" as="geometry" />
        </mxCell>
        <mxCell id="9ebifKDBvj5PMloUpHeM-190" value="&lt;font style=&quot;font-size: 22px;&quot;&gt;Data&lt;/font&gt;" style="rounded=1;whiteSpace=wrap;html=1;fillColor=#dae8fc;strokeColor=#6c8ebf;strokeWidth=3;fontSize=22;" parent="WIyWlLk6GJQsqaUBKTNV-1" vertex="1">
          <mxGeometry x="842" y="1980" width="220" height="60" as="geometry" />
        </mxCell>
        <mxCell id="9ebifKDBvj5PMloUpHeM-191" value="&lt;font style=&quot;font-size: 22px;&quot;&gt;Frame Number&lt;/font&gt;" style="rounded=1;whiteSpace=wrap;html=1;strokeWidth=3;fontSize=22;" parent="WIyWlLk6GJQsqaUBKTNV-1" vertex="1">
          <mxGeometry x="653.25" y="1980" width="95" height="60" as="geometry" />
        </mxCell>
        <mxCell id="9ebifKDBvj5PMloUpHeM-192" value="&lt;font style=&quot;font-size: 22px;&quot;&gt;Offset&lt;/font&gt;" style="rounded=1;whiteSpace=wrap;html=1;strokeWidth=3;fontSize=22;" parent="WIyWlLk6GJQsqaUBKTNV-1" vertex="1">
          <mxGeometry x="750.25" y="1980" width="89" height="60" as="geometry" />
        </mxCell>
        <mxCell id="9ebifKDBvj5PMloUpHeM-193" value="&lt;font style=&quot;font-size: 22px;&quot;&gt;4 Bytes&lt;/font&gt;" style="text;html=1;align=center;verticalAlign=middle;resizable=0;points=[];autosize=1;strokeColor=none;fillColor=none;fontSize=22;" parent="WIyWlLk6GJQsqaUBKTNV-1" vertex="1">
          <mxGeometry x="652.75" y="2040" width="100" height="40" as="geometry" />
        </mxCell>
        <mxCell id="9ebifKDBvj5PMloUpHeM-194" value="&lt;font style=&quot;font-size: 22px;&quot;&gt;4 Bytes&lt;/font&gt;" style="text;html=1;align=center;verticalAlign=middle;resizable=0;points=[];autosize=1;strokeColor=none;fillColor=none;fontSize=22;" parent="WIyWlLk6GJQsqaUBKTNV-1" vertex="1">
          <mxGeometry x="744.75" y="2040" width="100" height="40" as="geometry" />
        </mxCell>
        <mxCell id="9ebifKDBvj5PMloUpHeM-195" value="&lt;font style=&quot;font-size: 22px;&quot;&gt;120 Bytes&lt;/font&gt;" style="text;html=1;align=center;verticalAlign=middle;resizable=0;points=[];autosize=1;strokeColor=none;fillColor=none;fontSize=22;" parent="WIyWlLk6GJQsqaUBKTNV-1" vertex="1">
          <mxGeometry x="889.25" y="2040" width="120" height="40" as="geometry" />
        </mxCell>
        <mxCell id="9ebifKDBvj5PMloUpHeM-197" value="&lt;font style=&quot;font-size: 27px;&quot;&gt;&lt;b&gt;DLE Decoder / Receiver&lt;/b&gt;&lt;/font&gt;" style="text;html=1;align=center;verticalAlign=middle;whiteSpace=wrap;rounded=0;strokeWidth=3;fontSize=22;" parent="WIyWlLk6GJQsqaUBKTNV-1" vertex="1">
          <mxGeometry x="360" y="2660" width="320" height="30" as="geometry" />
        </mxCell>
        <mxCell id="9ebifKDBvj5PMloUpHeM-199" value="" style="rounded=0;whiteSpace=wrap;html=1;strokeWidth=3;" parent="WIyWlLk6GJQsqaUBKTNV-1" vertex="1">
          <mxGeometry x="355.25" y="3290" width="212.25" height="320" as="geometry" />
        </mxCell>
        <mxCell id="9ebifKDBvj5PMloUpHeM-202" value="" style="endArrow=none;dashed=1;html=1;strokeWidth=15;rounded=0;curved=0;strokeColor=default;dashPattern=1 1;" parent="WIyWlLk6GJQsqaUBKTNV-1" edge="1">
          <mxGeometry width="50" height="50" relative="1" as="geometry">
            <mxPoint x="863.5" y="3460" as="sourcePoint" />
            <mxPoint x="943.25" y="3460" as="targetPoint" />
          </mxGeometry>
        </mxCell>
        <mxCell id="9ebifKDBvj5PMloUpHeM-203" value="&lt;span style=&quot;text-wrap: nowrap;&quot;&gt;Ciphertext&lt;/span&gt;" style="rounded=1;whiteSpace=wrap;html=1;fillColor=#f8cecc;strokeColor=#b85450;strokeWidth=3;fontSize=22;" parent="WIyWlLk6GJQsqaUBKTNV-1" vertex="1">
          <mxGeometry x="336.75" y="2950.5" width="404" height="60" as="geometry" />
        </mxCell>
        <mxCell id="9ebifKDBvj5PMloUpHeM-204" style="edgeStyle=orthogonalEdgeStyle;rounded=0;orthogonalLoop=1;jettySize=auto;html=1;entryX=0;entryY=0.5;entryDx=0;entryDy=0;fontSize=22;strokeWidth=3;" parent="WIyWlLk6GJQsqaUBKTNV-1" target="9ebifKDBvj5PMloUpHeM-213" edge="1">
          <mxGeometry relative="1" as="geometry">
            <mxPoint x="840.0000000000002" y="2877" as="targetPoint" />
            <mxPoint x="790" y="2877" as="sourcePoint" />
          </mxGeometry>
        </mxCell>
        <mxCell id="9ebifKDBvj5PMloUpHeM-205" value="Key" style="text;html=1;align=center;verticalAlign=middle;resizable=0;points=[];autosize=1;strokeColor=none;fillColor=none;fontSize=22;strokeWidth=3;" parent="WIyWlLk6GJQsqaUBKTNV-1" vertex="1">
          <mxGeometry x="730" y="2857" width="60" height="40" as="geometry" />
        </mxCell>
        <mxCell id="9ebifKDBvj5PMloUpHeM-206" style="edgeStyle=orthogonalEdgeStyle;rounded=0;orthogonalLoop=1;jettySize=auto;html=1;entryX=0;entryY=0.5;entryDx=0;entryDy=0;fontSize=22;strokeWidth=3;" parent="WIyWlLk6GJQsqaUBKTNV-1" target="9ebifKDBvj5PMloUpHeM-209" edge="1">
          <mxGeometry relative="1" as="geometry">
            <mxPoint x="751" y="2981" as="sourcePoint" />
          </mxGeometry>
        </mxCell>
        <mxCell id="9ebifKDBvj5PMloUpHeM-207" style="edgeStyle=orthogonalEdgeStyle;rounded=0;orthogonalLoop=1;jettySize=auto;html=1;exitX=0.5;exitY=1;exitDx=0;exitDy=0;entryX=0.5;entryY=0;entryDx=0;entryDy=0;fontSize=22;strokeWidth=3;" parent="WIyWlLk6GJQsqaUBKTNV-1" source="9ebifKDBvj5PMloUpHeM-213" target="9ebifKDBvj5PMloUpHeM-209" edge="1">
          <mxGeometry relative="1" as="geometry">
            <mxPoint x="910.0000000000002" y="2900.5" as="sourcePoint" />
          </mxGeometry>
        </mxCell>
        <mxCell id="9ebifKDBvj5PMloUpHeM-208" value="" style="group;fontSize=22;strokeWidth=3;" parent="WIyWlLk6GJQsqaUBKTNV-1" vertex="1" connectable="0">
          <mxGeometry x="890" y="2960.5" width="40" height="40" as="geometry" />
        </mxCell>
        <mxCell id="9ebifKDBvj5PMloUpHeM-209" value="" style="ellipse;whiteSpace=wrap;html=1;aspect=fixed;fillColor=none;fontSize=22;strokeWidth=3;" parent="9ebifKDBvj5PMloUpHeM-208" vertex="1">
          <mxGeometry width="40" height="40" as="geometry" />
        </mxCell>
        <mxCell id="9ebifKDBvj5PMloUpHeM-210" style="edgeStyle=orthogonalEdgeStyle;rounded=0;orthogonalLoop=1;jettySize=auto;html=1;entryX=0.5;entryY=1;entryDx=0;entryDy=0;exitX=0.5;exitY=0;exitDx=0;exitDy=0;endArrow=none;endFill=0;fontSize=22;strokeWidth=3;" parent="9ebifKDBvj5PMloUpHeM-208" source="9ebifKDBvj5PMloUpHeM-209" target="9ebifKDBvj5PMloUpHeM-209" edge="1">
          <mxGeometry relative="1" as="geometry">
            <Array as="points">
              <mxPoint x="20" />
              <mxPoint x="20" y="40" />
            </Array>
          </mxGeometry>
        </mxCell>
        <mxCell id="9ebifKDBvj5PMloUpHeM-211" style="edgeStyle=orthogonalEdgeStyle;rounded=0;orthogonalLoop=1;jettySize=auto;html=1;exitX=0;exitY=0.5;exitDx=0;exitDy=0;entryX=1;entryY=0.5;entryDx=0;entryDy=0;endArrow=none;endFill=0;fontSize=22;strokeWidth=3;" parent="9ebifKDBvj5PMloUpHeM-208" source="9ebifKDBvj5PMloUpHeM-209" target="9ebifKDBvj5PMloUpHeM-209" edge="1">
          <mxGeometry relative="1" as="geometry">
            <Array as="points">
              <mxPoint x="10" y="20" />
              <mxPoint x="10" y="20" />
            </Array>
          </mxGeometry>
        </mxCell>
        <mxCell id="9ebifKDBvj5PMloUpHeM-212" style="edgeStyle=orthogonalEdgeStyle;rounded=0;orthogonalLoop=1;jettySize=auto;html=1;exitX=0.5;exitY=1;exitDx=0;exitDy=0;entryX=0.514;entryY=-0.117;entryDx=0;entryDy=0;entryPerimeter=0;fontSize=22;strokeWidth=3;" parent="WIyWlLk6GJQsqaUBKTNV-1" source="9ebifKDBvj5PMloUpHeM-209" edge="1">
          <mxGeometry relative="1" as="geometry">
            <mxPoint x="910.6799999999998" y="3030.8199999999997" as="targetPoint" />
          </mxGeometry>
        </mxCell>
        <mxCell id="9ebifKDBvj5PMloUpHeM-213" value="&lt;meta charset=&quot;utf-8&quot;&gt;&lt;span style=&quot;color: rgb(0, 0, 0); font-family: Helvetica; font-size: 22px; font-style: normal; font-variant-ligatures: normal; font-variant-caps: normal; font-weight: 400; letter-spacing: normal; orphans: 2; text-align: center; text-indent: 0px; text-transform: none; widows: 2; word-spacing: 0px; -webkit-text-stroke-width: 0px; white-space: normal; background-color: rgb(251, 251, 251); text-decoration-thickness: initial; text-decoration-style: initial; text-decoration-color: initial; display: inline !important; float: none;&quot;&gt;Block Cipher&lt;/span&gt;" style="rounded=1;whiteSpace=wrap;html=1;strokeWidth=3;" parent="WIyWlLk6GJQsqaUBKTNV-1" vertex="1">
          <mxGeometry x="840" y="2847" width="140" height="60" as="geometry" />
        </mxCell>
        <mxCell id="9ebifKDBvj5PMloUpHeM-214" style="edgeStyle=orthogonalEdgeStyle;rounded=0;orthogonalLoop=1;jettySize=auto;html=1;entryX=0.5;entryY=0;entryDx=0;entryDy=0;strokeWidth=3;" parent="WIyWlLk6GJQsqaUBKTNV-1" source="9ebifKDBvj5PMloUpHeM-215" target="9ebifKDBvj5PMloUpHeM-213" edge="1">
          <mxGeometry relative="1" as="geometry" />
        </mxCell>
        <mxCell id="9ebifKDBvj5PMloUpHeM-215" value="&lt;font style=&quot;font-size: 22px;&quot;&gt;IV&lt;/font&gt;" style="text;html=1;align=center;verticalAlign=middle;resizable=0;points=[];autosize=1;strokeColor=none;fillColor=none;" parent="WIyWlLk6GJQsqaUBKTNV-1" vertex="1">
          <mxGeometry x="891" y="2740" width="40" height="40" as="geometry" />
        </mxCell>
        <mxCell id="9ebifKDBvj5PMloUpHeM-216" value="&lt;font style=&quot;font-size: 22px;&quot;&gt;Data&lt;/font&gt;" style="rounded=1;whiteSpace=wrap;html=1;fillColor=#dae8fc;strokeColor=#6c8ebf;strokeWidth=3;fontSize=22;" parent="WIyWlLk6GJQsqaUBKTNV-1" vertex="1">
          <mxGeometry x="896.25" y="3040" width="220" height="60" as="geometry" />
        </mxCell>
        <mxCell id="9ebifKDBvj5PMloUpHeM-217" value="Frame Number" style="rounded=1;whiteSpace=wrap;html=1;strokeWidth=3;fontSize=22;" parent="WIyWlLk6GJQsqaUBKTNV-1" vertex="1">
          <mxGeometry x="708.25" y="3040" width="95" height="60" as="geometry" />
        </mxCell>
        <mxCell id="9ebifKDBvj5PMloUpHeM-218" value="&lt;font style=&quot;font-size: 22px;&quot;&gt;Offset&lt;/font&gt;" style="rounded=1;whiteSpace=wrap;html=1;strokeWidth=3;fontSize=22;" parent="WIyWlLk6GJQsqaUBKTNV-1" vertex="1">
          <mxGeometry x="805.25" y="3040" width="89" height="60" as="geometry" />
        </mxCell>
        <mxCell id="9ebifKDBvj5PMloUpHeM-219" value="&lt;font style=&quot;font-size: 22px;&quot;&gt;4 Bytes&lt;/font&gt;" style="text;html=1;align=center;verticalAlign=middle;resizable=0;points=[];autosize=1;strokeColor=none;fillColor=none;fontSize=22;" parent="WIyWlLk6GJQsqaUBKTNV-1" vertex="1">
          <mxGeometry x="707.75" y="3100" width="100" height="40" as="geometry" />
        </mxCell>
        <mxCell id="9ebifKDBvj5PMloUpHeM-220" value="&lt;font style=&quot;font-size: 22px;&quot;&gt;4 Bytes&lt;/font&gt;" style="text;html=1;align=center;verticalAlign=middle;resizable=0;points=[];autosize=1;strokeColor=none;fillColor=none;fontSize=22;" parent="WIyWlLk6GJQsqaUBKTNV-1" vertex="1">
          <mxGeometry x="799.75" y="3100" width="100" height="40" as="geometry" />
        </mxCell>
        <mxCell id="9ebifKDBvj5PMloUpHeM-221" value="&lt;font style=&quot;font-size: 22px;&quot;&gt;120 Bytes&lt;/font&gt;" style="text;html=1;align=center;verticalAlign=middle;resizable=0;points=[];autosize=1;strokeColor=none;fillColor=none;fontSize=22;" parent="WIyWlLk6GJQsqaUBKTNV-1" vertex="1">
          <mxGeometry x="944.25" y="3100" width="120" height="40" as="geometry" />
        </mxCell>
        <mxCell id="9ebifKDBvj5PMloUpHeM-222" value="&lt;font style=&quot;font-size: 22px;&quot;&gt;Data&lt;/font&gt;" style="rounded=1;whiteSpace=wrap;html=1;fillColor=#dae8fc;strokeColor=#6c8ebf;strokeWidth=3;fontSize=22;" parent="WIyWlLk6GJQsqaUBKTNV-1" vertex="1">
          <mxGeometry x="373.37" y="3300" width="176" height="60" as="geometry" />
        </mxCell>
        <mxCell id="9ebifKDBvj5PMloUpHeM-224" value="&lt;font style=&quot;font-size: 27px;&quot;&gt;Frame Buffer&lt;/font&gt;" style="text;html=1;align=center;verticalAlign=middle;resizable=0;points=[];autosize=1;strokeColor=none;fillColor=none;" parent="WIyWlLk6GJQsqaUBKTNV-1" vertex="1">
          <mxGeometry x="375.25" y="3610" width="180" height="50" as="geometry" />
        </mxCell>
        <mxCell id="9ebifKDBvj5PMloUpHeM-226" value="" style="endArrow=none;html=1;rounded=0;exitX=-0.001;exitY=0.19;exitDx=0;exitDy=0;exitPerimeter=0;entryX=1;entryY=0.191;entryDx=0;entryDy=0;entryPerimeter=0;" parent="WIyWlLk6GJQsqaUBKTNV-1" edge="1">
          <mxGeometry width="50" height="50" relative="1" as="geometry">
            <mxPoint x="355.5" y="3370" as="sourcePoint" />
            <mxPoint x="567.5" y="3371" as="targetPoint" />
          </mxGeometry>
        </mxCell>
        <mxCell id="9ebifKDBvj5PMloUpHeM-227" value="" style="endArrow=none;html=1;rounded=0;exitX=-0.001;exitY=0.19;exitDx=0;exitDy=0;exitPerimeter=0;entryX=1;entryY=0.191;entryDx=0;entryDy=0;entryPerimeter=0;" parent="WIyWlLk6GJQsqaUBKTNV-1" edge="1">
          <mxGeometry width="50" height="50" relative="1" as="geometry">
            <mxPoint x="354" y="3449.5" as="sourcePoint" />
            <mxPoint x="566" y="3450.5" as="targetPoint" />
          </mxGeometry>
        </mxCell>
        <mxCell id="9ebifKDBvj5PMloUpHeM-228" value="" style="endArrow=none;html=1;rounded=0;exitX=-0.001;exitY=0.19;exitDx=0;exitDy=0;exitPerimeter=0;entryX=1;entryY=0.191;entryDx=0;entryDy=0;entryPerimeter=0;" parent="WIyWlLk6GJQsqaUBKTNV-1" edge="1">
          <mxGeometry width="50" height="50" relative="1" as="geometry">
            <mxPoint x="355.5" y="3530" as="sourcePoint" />
            <mxPoint x="567.5" y="3531" as="targetPoint" />
          </mxGeometry>
        </mxCell>
        <mxCell id="9ebifKDBvj5PMloUpHeM-231" value="" style="rounded=0;whiteSpace=wrap;html=1;strokeWidth=3;" parent="WIyWlLk6GJQsqaUBKTNV-1" vertex="1">
          <mxGeometry x="598.75" y="3290" width="212.25" height="320" as="geometry" />
        </mxCell>
        <mxCell id="9ebifKDBvj5PMloUpHeM-233" value="" style="endArrow=none;html=1;rounded=0;exitX=-0.001;exitY=0.19;exitDx=0;exitDy=0;exitPerimeter=0;entryX=1;entryY=0.191;entryDx=0;entryDy=0;entryPerimeter=0;" parent="WIyWlLk6GJQsqaUBKTNV-1" edge="1">
          <mxGeometry width="50" height="50" relative="1" as="geometry">
            <mxPoint x="599" y="3370" as="sourcePoint" />
            <mxPoint x="811" y="3371" as="targetPoint" />
          </mxGeometry>
        </mxCell>
        <mxCell id="9ebifKDBvj5PMloUpHeM-234" value="" style="endArrow=none;html=1;rounded=0;exitX=-0.001;exitY=0.19;exitDx=0;exitDy=0;exitPerimeter=0;entryX=1;entryY=0.191;entryDx=0;entryDy=0;entryPerimeter=0;" parent="WIyWlLk6GJQsqaUBKTNV-1" edge="1">
          <mxGeometry width="50" height="50" relative="1" as="geometry">
            <mxPoint x="597.5" y="3449.5" as="sourcePoint" />
            <mxPoint x="809.5" y="3450.5" as="targetPoint" />
          </mxGeometry>
        </mxCell>
        <mxCell id="9ebifKDBvj5PMloUpHeM-235" value="" style="endArrow=none;html=1;rounded=0;exitX=-0.001;exitY=0.19;exitDx=0;exitDy=0;exitPerimeter=0;entryX=1;entryY=0.191;entryDx=0;entryDy=0;entryPerimeter=0;" parent="WIyWlLk6GJQsqaUBKTNV-1" edge="1">
          <mxGeometry width="50" height="50" relative="1" as="geometry">
            <mxPoint x="599" y="3530" as="sourcePoint" />
            <mxPoint x="811" y="3531" as="targetPoint" />
          </mxGeometry>
        </mxCell>
        <mxCell id="9ebifKDBvj5PMloUpHeM-241" value="" style="rounded=0;whiteSpace=wrap;html=1;strokeWidth=3;" parent="WIyWlLk6GJQsqaUBKTNV-1" vertex="1">
          <mxGeometry x="1004.5" y="3290" width="212.25" height="320" as="geometry" />
        </mxCell>
        <mxCell id="9ebifKDBvj5PMloUpHeM-242" value="" style="endArrow=none;html=1;rounded=0;exitX=-0.001;exitY=0.19;exitDx=0;exitDy=0;exitPerimeter=0;entryX=1;entryY=0.191;entryDx=0;entryDy=0;entryPerimeter=0;" parent="WIyWlLk6GJQsqaUBKTNV-1" edge="1">
          <mxGeometry width="50" height="50" relative="1" as="geometry">
            <mxPoint x="1004.75" y="3370" as="sourcePoint" />
            <mxPoint x="1216.75" y="3371" as="targetPoint" />
          </mxGeometry>
        </mxCell>
        <mxCell id="9ebifKDBvj5PMloUpHeM-243" value="" style="endArrow=none;html=1;rounded=0;exitX=-0.001;exitY=0.19;exitDx=0;exitDy=0;exitPerimeter=0;entryX=1;entryY=0.191;entryDx=0;entryDy=0;entryPerimeter=0;" parent="WIyWlLk6GJQsqaUBKTNV-1" edge="1">
          <mxGeometry width="50" height="50" relative="1" as="geometry">
            <mxPoint x="1003.25" y="3449.5" as="sourcePoint" />
            <mxPoint x="1215.25" y="3450.5" as="targetPoint" />
          </mxGeometry>
        </mxCell>
        <mxCell id="9ebifKDBvj5PMloUpHeM-244" value="" style="endArrow=none;html=1;rounded=0;exitX=-0.001;exitY=0.19;exitDx=0;exitDy=0;exitPerimeter=0;entryX=1;entryY=0.191;entryDx=0;entryDy=0;entryPerimeter=0;" parent="WIyWlLk6GJQsqaUBKTNV-1" edge="1">
          <mxGeometry width="50" height="50" relative="1" as="geometry">
            <mxPoint x="1004.75" y="3530" as="sourcePoint" />
            <mxPoint x="1216.75" y="3531" as="targetPoint" />
          </mxGeometry>
        </mxCell>
        <mxCell id="lyI1Rf6VEcy5JzLfINy9-0" value="1" style="rounded=1;whiteSpace=wrap;html=1;strokeWidth=3;fontSize=44;" vertex="1" parent="WIyWlLk6GJQsqaUBKTNV-1">
          <mxGeometry x="342.63" y="3860" width="255" height="60" as="geometry" />
        </mxCell>
        <mxCell id="lyI1Rf6VEcy5JzLfINy9-1" value="3" style="rounded=1;whiteSpace=wrap;html=1;strokeWidth=3;fontSize=44;" vertex="1" parent="WIyWlLk6GJQsqaUBKTNV-1">
          <mxGeometry x="342.63" y="3940" width="255" height="60" as="geometry" />
        </mxCell>
        <mxCell id="lyI1Rf6VEcy5JzLfINy9-2" value="5" style="rounded=1;whiteSpace=wrap;html=1;strokeWidth=3;fontSize=44;" vertex="1" parent="WIyWlLk6GJQsqaUBKTNV-1">
          <mxGeometry x="342.62" y="4020" width="255" height="60" as="geometry" />
        </mxCell>
        <mxCell id="lyI1Rf6VEcy5JzLfINy9-3" value="2" style="rounded=1;whiteSpace=wrap;html=1;strokeWidth=3;fontSize=44;" vertex="1" parent="WIyWlLk6GJQsqaUBKTNV-1">
          <mxGeometry x="632.5" y="3860" width="255" height="60" as="geometry" />
        </mxCell>
        <mxCell id="lyI1Rf6VEcy5JzLfINy9-4" value="4" style="rounded=1;whiteSpace=wrap;html=1;strokeWidth=3;fontSize=44;" vertex="1" parent="WIyWlLk6GJQsqaUBKTNV-1">
          <mxGeometry x="632.5" y="3940" width="255" height="60" as="geometry" />
        </mxCell>
        <mxCell id="lyI1Rf6VEcy5JzLfINy9-5" value="6" style="rounded=1;whiteSpace=wrap;html=1;strokeWidth=3;fontSize=44;" vertex="1" parent="WIyWlLk6GJQsqaUBKTNV-1">
          <mxGeometry x="632.5" y="4020" width="255" height="60" as="geometry" />
        </mxCell>
        <mxCell id="lyI1Rf6VEcy5JzLfINy9-6" value="&lt;font style=&quot;font-size: 24px;&quot;&gt;HMAC R1&lt;/font&gt;" style="rounded=0;whiteSpace=wrap;html=1;strokeWidth=3;" vertex="1" parent="WIyWlLk6GJQsqaUBKTNV-1">
          <mxGeometry x="930" y="3865" width="120" height="50" as="geometry" />
        </mxCell>
        <mxCell id="lyI1Rf6VEcy5JzLfINy9-7" value="&lt;font style=&quot;font-size: 24px;&quot;&gt;HMAC R2&lt;/font&gt;" style="rounded=0;whiteSpace=wrap;html=1;strokeWidth=3;" vertex="1" parent="WIyWlLk6GJQsqaUBKTNV-1">
          <mxGeometry x="930" y="3945" width="120" height="50" as="geometry" />
        </mxCell>
        <mxCell id="lyI1Rf6VEcy5JzLfINy9-8" value="&lt;font style=&quot;font-size: 24px;&quot;&gt;HMAC R3&lt;/font&gt;" style="rounded=0;whiteSpace=wrap;html=1;strokeWidth=3;" vertex="1" parent="WIyWlLk6GJQsqaUBKTNV-1">
          <mxGeometry x="931" y="4025" width="120" height="50" as="geometry" />
        </mxCell>
        <mxCell id="lyI1Rf6VEcy5JzLfINy9-9" value="&lt;font style=&quot;font-size: 24px;&quot;&gt;HMAC C1&lt;/font&gt;" style="rounded=0;whiteSpace=wrap;html=1;strokeWidth=3;" vertex="1" parent="WIyWlLk6GJQsqaUBKTNV-1">
          <mxGeometry x="410.13" y="4110" width="120" height="50" as="geometry" />
        </mxCell>
        <mxCell id="lyI1Rf6VEcy5JzLfINy9-10" value="&lt;font style=&quot;font-size: 24px;&quot;&gt;HMAC C2&lt;/font&gt;" style="rounded=0;whiteSpace=wrap;html=1;strokeWidth=3;" vertex="1" parent="WIyWlLk6GJQsqaUBKTNV-1">
          <mxGeometry x="700" y="4110" width="120" height="50" as="geometry" />
        </mxCell>
        <mxCell id="lyI1Rf6VEcy5JzLfINy9-11" value="7" style="rounded=1;whiteSpace=wrap;html=1;strokeWidth=3;fontSize=44;" vertex="1" parent="WIyWlLk6GJQsqaUBKTNV-1">
          <mxGeometry x="342.64" y="4260" width="255" height="60" as="geometry" />
        </mxCell>
        <mxCell id="lyI1Rf6VEcy5JzLfINy9-12" value="9" style="rounded=1;whiteSpace=wrap;html=1;strokeWidth=3;fontSize=44;" vertex="1" parent="WIyWlLk6GJQsqaUBKTNV-1">
          <mxGeometry x="342.64" y="4340" width="255" height="60" as="geometry" />
        </mxCell>
        <mxCell id="lyI1Rf6VEcy5JzLfINy9-13" value="11" style="rounded=1;whiteSpace=wrap;html=1;strokeWidth=3;fontSize=44;" vertex="1" parent="WIyWlLk6GJQsqaUBKTNV-1">
          <mxGeometry x="342.63" y="4420" width="255" height="60" as="geometry" />
        </mxCell>
        <mxCell id="lyI1Rf6VEcy5JzLfINy9-14" value="8" style="rounded=1;whiteSpace=wrap;html=1;strokeWidth=3;fontSize=44;" vertex="1" parent="WIyWlLk6GJQsqaUBKTNV-1">
          <mxGeometry x="632.51" y="4260" width="255" height="60" as="geometry" />
        </mxCell>
        <mxCell id="lyI1Rf6VEcy5JzLfINy9-15" value="10" style="rounded=1;whiteSpace=wrap;html=1;strokeWidth=3;fontSize=44;" vertex="1" parent="WIyWlLk6GJQsqaUBKTNV-1">
          <mxGeometry x="632.51" y="4340" width="255" height="60" as="geometry" />
        </mxCell>
        <mxCell id="lyI1Rf6VEcy5JzLfINy9-16" value="&amp;nbsp; &amp;nbsp; &amp;nbsp; Zeros" style="rounded=1;whiteSpace=wrap;html=1;strokeWidth=3;fontSize=44;" vertex="1" parent="WIyWlLk6GJQsqaUBKTNV-1">
          <mxGeometry x="632.51" y="4420" width="255" height="60" as="geometry" />
        </mxCell>
        <mxCell id="lyI1Rf6VEcy5JzLfINy9-17" value="&lt;font style=&quot;font-size: 24px;&quot;&gt;HMAC R1&lt;/font&gt;" style="rounded=0;whiteSpace=wrap;html=1;strokeWidth=3;" vertex="1" parent="WIyWlLk6GJQsqaUBKTNV-1">
          <mxGeometry x="930.01" y="4265" width="120" height="50" as="geometry" />
        </mxCell>
        <mxCell id="lyI1Rf6VEcy5JzLfINy9-18" value="&lt;font style=&quot;font-size: 24px;&quot;&gt;HMAC R2&lt;/font&gt;" style="rounded=0;whiteSpace=wrap;html=1;strokeWidth=3;" vertex="1" parent="WIyWlLk6GJQsqaUBKTNV-1">
          <mxGeometry x="930.01" y="4345" width="120" height="50" as="geometry" />
        </mxCell>
        <mxCell id="lyI1Rf6VEcy5JzLfINy9-19" value="&lt;font style=&quot;font-size: 24px;&quot;&gt;HMAC R3&lt;/font&gt;" style="rounded=0;whiteSpace=wrap;html=1;strokeWidth=3;" vertex="1" parent="WIyWlLk6GJQsqaUBKTNV-1">
          <mxGeometry x="931.01" y="4425" width="120" height="50" as="geometry" />
        </mxCell>
        <mxCell id="lyI1Rf6VEcy5JzLfINy9-20" value="&lt;font style=&quot;font-size: 24px;&quot;&gt;HMAC C1&lt;/font&gt;" style="rounded=0;whiteSpace=wrap;html=1;strokeWidth=3;" vertex="1" parent="WIyWlLk6GJQsqaUBKTNV-1">
          <mxGeometry x="410.14" y="4510" width="120" height="50" as="geometry" />
        </mxCell>
        <mxCell id="lyI1Rf6VEcy5JzLfINy9-21" value="&lt;font style=&quot;font-size: 24px;&quot;&gt;HMAC C2&lt;/font&gt;" style="rounded=0;whiteSpace=wrap;html=1;strokeWidth=3;" vertex="1" parent="WIyWlLk6GJQsqaUBKTNV-1">
          <mxGeometry x="700.01" y="4510" width="120" height="50" as="geometry" />
        </mxCell>
        <mxCell id="lyI1Rf6VEcy5JzLfINy9-23" value="12" style="rounded=1;whiteSpace=wrap;html=1;strokeWidth=3;fontSize=44;" vertex="1" parent="WIyWlLk6GJQsqaUBKTNV-1">
          <mxGeometry x="632.5" y="4420" width="77.5" height="60" as="geometry" />
        </mxCell>
        <mxCell id="lyI1Rf6VEcy5JzLfINy9-64" value="" style="endArrow=none;html=1;rounded=0;strokeWidth=3;" edge="1" parent="WIyWlLk6GJQsqaUBKTNV-1">
          <mxGeometry width="50" height="50" relative="1" as="geometry">
            <mxPoint x="1200" y="3839" as="sourcePoint" />
            <mxPoint x="1520" y="3839" as="targetPoint" />
          </mxGeometry>
        </mxCell>
        <mxCell id="lyI1Rf6VEcy5JzLfINy9-65" value="" style="endArrow=none;html=1;rounded=0;strokeWidth=3;" edge="1" parent="WIyWlLk6GJQsqaUBKTNV-1">
          <mxGeometry width="50" height="50" relative="1" as="geometry">
            <mxPoint x="1280" y="3878" as="sourcePoint" />
            <mxPoint x="1520" y="3878" as="targetPoint" />
          </mxGeometry>
        </mxCell>
        <mxCell id="lyI1Rf6VEcy5JzLfINy9-66" value="" style="endArrow=none;html=1;rounded=0;strokeWidth=3;" edge="1" parent="WIyWlLk6GJQsqaUBKTNV-1">
          <mxGeometry width="50" height="50" relative="1" as="geometry">
            <mxPoint x="1360" y="3920" as="sourcePoint" />
            <mxPoint x="1520" y="3920" as="targetPoint" />
          </mxGeometry>
        </mxCell>
        <mxCell id="lyI1Rf6VEcy5JzLfINy9-67" value="" style="endArrow=none;html=1;rounded=0;strokeWidth=3;" edge="1" parent="WIyWlLk6GJQsqaUBKTNV-1">
          <mxGeometry width="50" height="50" relative="1" as="geometry">
            <mxPoint x="1440" y="3961" as="sourcePoint" />
            <mxPoint x="1520" y="3961" as="targetPoint" />
          </mxGeometry>
        </mxCell>
        <mxCell id="lyI1Rf6VEcy5JzLfINy9-78" value="" style="endArrow=none;html=1;rounded=0;strokeWidth=3;" edge="1" parent="WIyWlLk6GJQsqaUBKTNV-1">
          <mxGeometry width="50" height="50" relative="1" as="geometry">
            <mxPoint x="1200" y="3919" as="sourcePoint" />
            <mxPoint x="1279" y="3919" as="targetPoint" />
          </mxGeometry>
        </mxCell>
        <mxCell id="lyI1Rf6VEcy5JzLfINy9-79" value="" style="endArrow=none;html=1;rounded=0;strokeWidth=3;" edge="1" parent="WIyWlLk6GJQsqaUBKTNV-1">
          <mxGeometry width="50" height="50" relative="1" as="geometry">
            <mxPoint x="1199" y="3960" as="sourcePoint" />
            <mxPoint x="1360" y="3960" as="targetPoint" />
          </mxGeometry>
        </mxCell>
        <mxCell id="lyI1Rf6VEcy5JzLfINy9-80" value="" style="endArrow=none;html=1;rounded=0;strokeWidth=3;" edge="1" parent="WIyWlLk6GJQsqaUBKTNV-1">
          <mxGeometry width="50" height="50" relative="1" as="geometry">
            <mxPoint x="1280" y="3920" as="sourcePoint" />
            <mxPoint x="1280" y="3877" as="targetPoint" />
          </mxGeometry>
        </mxCell>
        <mxCell id="lyI1Rf6VEcy5JzLfINy9-82" value="" style="endArrow=none;html=1;rounded=0;strokeWidth=3;" edge="1" parent="WIyWlLk6GJQsqaUBKTNV-1">
          <mxGeometry width="50" height="50" relative="1" as="geometry">
            <mxPoint x="1360" y="3960" as="sourcePoint" />
            <mxPoint x="1360" y="3919" as="targetPoint" />
          </mxGeometry>
        </mxCell>
        <mxCell id="lyI1Rf6VEcy5JzLfINy9-83" value="" style="endArrow=none;html=1;rounded=0;strokeWidth=3;" edge="1" parent="WIyWlLk6GJQsqaUBKTNV-1">
          <mxGeometry width="50" height="50" relative="1" as="geometry">
            <mxPoint x="1199" y="4001.33" as="sourcePoint" />
            <mxPoint x="1440" y="4001" as="targetPoint" />
          </mxGeometry>
        </mxCell>
        <mxCell id="lyI1Rf6VEcy5JzLfINy9-84" value="" style="endArrow=none;html=1;rounded=0;strokeWidth=3;" edge="1" parent="WIyWlLk6GJQsqaUBKTNV-1">
          <mxGeometry width="50" height="50" relative="1" as="geometry">
            <mxPoint x="1440" y="4000" as="sourcePoint" />
            <mxPoint x="1440" y="3960" as="targetPoint" />
          </mxGeometry>
        </mxCell>
        <mxCell id="lyI1Rf6VEcy5JzLfINy9-85" value="" style="endArrow=none;html=1;rounded=0;strokeWidth=3;" edge="1" parent="WIyWlLk6GJQsqaUBKTNV-1">
          <mxGeometry width="50" height="50" relative="1" as="geometry">
            <mxPoint x="1520" y="3839" as="sourcePoint" />
            <mxPoint x="1520" y="4040" as="targetPoint" />
          </mxGeometry>
        </mxCell>
        <mxCell id="lyI1Rf6VEcy5JzLfINy9-86" value="" style="endArrow=none;html=1;rounded=0;strokeWidth=3;" edge="1" parent="WIyWlLk6GJQsqaUBKTNV-1">
          <mxGeometry width="50" height="50" relative="1" as="geometry">
            <mxPoint x="1200" y="3840" as="sourcePoint" />
            <mxPoint x="1200" y="4040" as="targetPoint" />
          </mxGeometry>
        </mxCell>
        <mxCell id="lyI1Rf6VEcy5JzLfINy9-87" value="&lt;font style=&quot;font-size: 50px;&quot;&gt;1&lt;/font&gt;" style="text;html=1;align=center;verticalAlign=middle;whiteSpace=wrap;rounded=0;" vertex="1" parent="WIyWlLk6GJQsqaUBKTNV-1">
          <mxGeometry x="1209" y="3865" width="60" height="30" as="geometry" />
        </mxCell>
        <mxCell id="lyI1Rf6VEcy5JzLfINy9-88" value="&lt;font style=&quot;font-size: 50px;&quot;&gt;2&lt;/font&gt;" style="text;html=1;align=center;verticalAlign=middle;whiteSpace=wrap;rounded=0;" vertex="1" parent="WIyWlLk6GJQsqaUBKTNV-1">
          <mxGeometry x="1290" y="3910" width="60" height="30" as="geometry" />
        </mxCell>
        <mxCell id="lyI1Rf6VEcy5JzLfINy9-89" value="&lt;font style=&quot;font-size: 50px;&quot;&gt;3&lt;/font&gt;" style="text;html=1;align=center;verticalAlign=middle;whiteSpace=wrap;rounded=0;" vertex="1" parent="WIyWlLk6GJQsqaUBKTNV-1">
          <mxGeometry x="1369" y="3944" width="60" height="30" as="geometry" />
        </mxCell>
        <mxCell id="lyI1Rf6VEcy5JzLfINy9-90" value="&lt;font style=&quot;font-size: 50px;&quot;&gt;4&lt;/font&gt;" style="text;html=1;align=center;verticalAlign=middle;whiteSpace=wrap;rounded=0;" vertex="1" parent="WIyWlLk6GJQsqaUBKTNV-1">
          <mxGeometry x="1449" y="3990" width="60" height="30" as="geometry" />
        </mxCell>
        <mxCell id="lyI1Rf6VEcy5JzLfINy9-91" value="" style="endArrow=none;html=1;rounded=0;strokeWidth=3;" edge="1" parent="WIyWlLk6GJQsqaUBKTNV-1">
          <mxGeometry width="50" height="50" relative="1" as="geometry">
            <mxPoint x="1200" y="4039.24" as="sourcePoint" />
            <mxPoint x="1520" y="4039.24" as="targetPoint" />
          </mxGeometry>
        </mxCell>
        <mxCell id="lyI1Rf6VEcy5JzLfINy9-108" value="" style="endArrow=none;html=1;rounded=0;strokeWidth=3;" edge="1" parent="WIyWlLk6GJQsqaUBKTNV-1">
          <mxGeometry width="50" height="50" relative="1" as="geometry">
            <mxPoint x="1200" y="4040" as="sourcePoint" />
            <mxPoint x="1520" y="4040" as="targetPoint" />
          </mxGeometry>
        </mxCell>
        <mxCell id="lyI1Rf6VEcy5JzLfINy9-109" value="" style="endArrow=none;html=1;rounded=0;strokeWidth=3;" edge="1" parent="WIyWlLk6GJQsqaUBKTNV-1">
          <mxGeometry width="50" height="50" relative="1" as="geometry">
            <mxPoint x="1280" y="4079" as="sourcePoint" />
            <mxPoint x="1520" y="4079" as="targetPoint" />
          </mxGeometry>
        </mxCell>
        <mxCell id="lyI1Rf6VEcy5JzLfINy9-110" value="" style="endArrow=none;html=1;rounded=0;strokeWidth=3;" edge="1" parent="WIyWlLk6GJQsqaUBKTNV-1">
          <mxGeometry width="50" height="50" relative="1" as="geometry">
            <mxPoint x="1360" y="4121" as="sourcePoint" />
            <mxPoint x="1520" y="4121" as="targetPoint" />
          </mxGeometry>
        </mxCell>
        <mxCell id="lyI1Rf6VEcy5JzLfINy9-111" value="" style="endArrow=none;html=1;rounded=0;strokeWidth=3;" edge="1" parent="WIyWlLk6GJQsqaUBKTNV-1">
          <mxGeometry width="50" height="50" relative="1" as="geometry">
            <mxPoint x="1440" y="4162" as="sourcePoint" />
            <mxPoint x="1520" y="4162" as="targetPoint" />
          </mxGeometry>
        </mxCell>
        <mxCell id="lyI1Rf6VEcy5JzLfINy9-112" value="" style="endArrow=none;html=1;rounded=0;strokeWidth=3;" edge="1" parent="WIyWlLk6GJQsqaUBKTNV-1">
          <mxGeometry width="50" height="50" relative="1" as="geometry">
            <mxPoint x="1200" y="4120" as="sourcePoint" />
            <mxPoint x="1279" y="4120" as="targetPoint" />
          </mxGeometry>
        </mxCell>
        <mxCell id="lyI1Rf6VEcy5JzLfINy9-113" value="" style="endArrow=none;html=1;rounded=0;strokeWidth=3;" edge="1" parent="WIyWlLk6GJQsqaUBKTNV-1">
          <mxGeometry width="50" height="50" relative="1" as="geometry">
            <mxPoint x="1199" y="4161" as="sourcePoint" />
            <mxPoint x="1360" y="4161" as="targetPoint" />
          </mxGeometry>
        </mxCell>
        <mxCell id="lyI1Rf6VEcy5JzLfINy9-114" value="" style="endArrow=none;html=1;rounded=0;strokeWidth=3;" edge="1" parent="WIyWlLk6GJQsqaUBKTNV-1">
          <mxGeometry width="50" height="50" relative="1" as="geometry">
            <mxPoint x="1280" y="4121" as="sourcePoint" />
            <mxPoint x="1280" y="4078" as="targetPoint" />
          </mxGeometry>
        </mxCell>
        <mxCell id="lyI1Rf6VEcy5JzLfINy9-115" value="" style="endArrow=none;html=1;rounded=0;strokeWidth=3;" edge="1" parent="WIyWlLk6GJQsqaUBKTNV-1">
          <mxGeometry width="50" height="50" relative="1" as="geometry">
            <mxPoint x="1360" y="4161" as="sourcePoint" />
            <mxPoint x="1360" y="4120" as="targetPoint" />
          </mxGeometry>
        </mxCell>
        <mxCell id="lyI1Rf6VEcy5JzLfINy9-116" value="" style="endArrow=none;html=1;rounded=0;strokeWidth=3;" edge="1" parent="WIyWlLk6GJQsqaUBKTNV-1">
          <mxGeometry width="50" height="50" relative="1" as="geometry">
            <mxPoint x="1199" y="4202.33" as="sourcePoint" />
            <mxPoint x="1440" y="4202" as="targetPoint" />
          </mxGeometry>
        </mxCell>
        <mxCell id="lyI1Rf6VEcy5JzLfINy9-117" value="" style="endArrow=none;html=1;rounded=0;strokeWidth=3;" edge="1" parent="WIyWlLk6GJQsqaUBKTNV-1">
          <mxGeometry width="50" height="50" relative="1" as="geometry">
            <mxPoint x="1440" y="4201" as="sourcePoint" />
            <mxPoint x="1440" y="4161" as="targetPoint" />
          </mxGeometry>
        </mxCell>
        <mxCell id="lyI1Rf6VEcy5JzLfINy9-118" value="" style="endArrow=none;html=1;rounded=0;strokeWidth=3;" edge="1" parent="WIyWlLk6GJQsqaUBKTNV-1">
          <mxGeometry width="50" height="50" relative="1" as="geometry">
            <mxPoint x="1520" y="4040" as="sourcePoint" />
            <mxPoint x="1520" y="4241" as="targetPoint" />
          </mxGeometry>
        </mxCell>
        <mxCell id="lyI1Rf6VEcy5JzLfINy9-119" value="" style="endArrow=none;html=1;rounded=0;strokeWidth=3;" edge="1" parent="WIyWlLk6GJQsqaUBKTNV-1">
          <mxGeometry width="50" height="50" relative="1" as="geometry">
            <mxPoint x="1200" y="4041" as="sourcePoint" />
            <mxPoint x="1200" y="4241" as="targetPoint" />
          </mxGeometry>
        </mxCell>
        <mxCell id="lyI1Rf6VEcy5JzLfINy9-120" value="&lt;span style=&quot;font-size: 50px;&quot;&gt;5&lt;/span&gt;" style="text;html=1;align=center;verticalAlign=middle;whiteSpace=wrap;rounded=0;" vertex="1" parent="WIyWlLk6GJQsqaUBKTNV-1">
          <mxGeometry x="1209" y="4066" width="60" height="30" as="geometry" />
        </mxCell>
        <mxCell id="lyI1Rf6VEcy5JzLfINy9-121" value="&lt;font style=&quot;font-size: 50px;&quot;&gt;6&lt;/font&gt;" style="text;html=1;align=center;verticalAlign=middle;whiteSpace=wrap;rounded=0;" vertex="1" parent="WIyWlLk6GJQsqaUBKTNV-1">
          <mxGeometry x="1290" y="4111" width="60" height="30" as="geometry" />
        </mxCell>
        <mxCell id="lyI1Rf6VEcy5JzLfINy9-122" value="&lt;font style=&quot;font-size: 50px;&quot;&gt;7&lt;/font&gt;" style="text;html=1;align=center;verticalAlign=middle;whiteSpace=wrap;rounded=0;" vertex="1" parent="WIyWlLk6GJQsqaUBKTNV-1">
          <mxGeometry x="1369" y="4145" width="60" height="30" as="geometry" />
        </mxCell>
        <mxCell id="lyI1Rf6VEcy5JzLfINy9-123" value="&lt;font style=&quot;font-size: 50px;&quot;&gt;8&lt;/font&gt;" style="text;html=1;align=center;verticalAlign=middle;whiteSpace=wrap;rounded=0;" vertex="1" parent="WIyWlLk6GJQsqaUBKTNV-1">
          <mxGeometry x="1449" y="4191" width="60" height="30" as="geometry" />
        </mxCell>
        <mxCell id="lyI1Rf6VEcy5JzLfINy9-124" value="" style="endArrow=none;html=1;rounded=0;strokeWidth=3;" edge="1" parent="WIyWlLk6GJQsqaUBKTNV-1">
          <mxGeometry width="50" height="50" relative="1" as="geometry">
            <mxPoint x="1200" y="4240.24" as="sourcePoint" />
            <mxPoint x="1520" y="4240.24" as="targetPoint" />
          </mxGeometry>
        </mxCell>
        <mxCell id="lyI1Rf6VEcy5JzLfINy9-125" value="" style="endArrow=none;html=1;rounded=0;strokeWidth=3;" edge="1" parent="WIyWlLk6GJQsqaUBKTNV-1">
          <mxGeometry width="50" height="50" relative="1" as="geometry">
            <mxPoint x="1200" y="4240" as="sourcePoint" />
            <mxPoint x="1520" y="4240" as="targetPoint" />
          </mxGeometry>
        </mxCell>
        <mxCell id="lyI1Rf6VEcy5JzLfINy9-126" value="" style="endArrow=none;html=1;rounded=0;strokeWidth=3;" edge="1" parent="WIyWlLk6GJQsqaUBKTNV-1">
          <mxGeometry width="50" height="50" relative="1" as="geometry">
            <mxPoint x="1280" y="4279" as="sourcePoint" />
            <mxPoint x="1520" y="4279" as="targetPoint" />
          </mxGeometry>
        </mxCell>
        <mxCell id="lyI1Rf6VEcy5JzLfINy9-127" value="" style="endArrow=none;html=1;rounded=0;strokeWidth=3;" edge="1" parent="WIyWlLk6GJQsqaUBKTNV-1">
          <mxGeometry width="50" height="50" relative="1" as="geometry">
            <mxPoint x="1360" y="4321" as="sourcePoint" />
            <mxPoint x="1520" y="4321" as="targetPoint" />
          </mxGeometry>
        </mxCell>
        <mxCell id="lyI1Rf6VEcy5JzLfINy9-128" value="" style="endArrow=none;html=1;rounded=0;strokeWidth=3;" edge="1" parent="WIyWlLk6GJQsqaUBKTNV-1">
          <mxGeometry width="50" height="50" relative="1" as="geometry">
            <mxPoint x="1440" y="4362" as="sourcePoint" />
            <mxPoint x="1520" y="4362" as="targetPoint" />
          </mxGeometry>
        </mxCell>
        <mxCell id="lyI1Rf6VEcy5JzLfINy9-129" value="" style="endArrow=none;html=1;rounded=0;strokeWidth=3;" edge="1" parent="WIyWlLk6GJQsqaUBKTNV-1">
          <mxGeometry width="50" height="50" relative="1" as="geometry">
            <mxPoint x="1200" y="4320" as="sourcePoint" />
            <mxPoint x="1279" y="4320" as="targetPoint" />
          </mxGeometry>
        </mxCell>
        <mxCell id="lyI1Rf6VEcy5JzLfINy9-130" value="" style="endArrow=none;html=1;rounded=0;strokeWidth=3;" edge="1" parent="WIyWlLk6GJQsqaUBKTNV-1">
          <mxGeometry width="50" height="50" relative="1" as="geometry">
            <mxPoint x="1199" y="4361" as="sourcePoint" />
            <mxPoint x="1360" y="4361" as="targetPoint" />
          </mxGeometry>
        </mxCell>
        <mxCell id="lyI1Rf6VEcy5JzLfINy9-131" value="" style="endArrow=none;html=1;rounded=0;strokeWidth=3;" edge="1" parent="WIyWlLk6GJQsqaUBKTNV-1">
          <mxGeometry width="50" height="50" relative="1" as="geometry">
            <mxPoint x="1280" y="4321" as="sourcePoint" />
            <mxPoint x="1280" y="4278" as="targetPoint" />
          </mxGeometry>
        </mxCell>
        <mxCell id="lyI1Rf6VEcy5JzLfINy9-132" value="" style="endArrow=none;html=1;rounded=0;strokeWidth=3;" edge="1" parent="WIyWlLk6GJQsqaUBKTNV-1">
          <mxGeometry width="50" height="50" relative="1" as="geometry">
            <mxPoint x="1360" y="4361" as="sourcePoint" />
            <mxPoint x="1360" y="4320" as="targetPoint" />
          </mxGeometry>
        </mxCell>
        <mxCell id="lyI1Rf6VEcy5JzLfINy9-133" value="" style="endArrow=none;html=1;rounded=0;strokeWidth=3;" edge="1" parent="WIyWlLk6GJQsqaUBKTNV-1">
          <mxGeometry width="50" height="50" relative="1" as="geometry">
            <mxPoint x="1199" y="4402.33" as="sourcePoint" />
            <mxPoint x="1440" y="4402" as="targetPoint" />
          </mxGeometry>
        </mxCell>
        <mxCell id="lyI1Rf6VEcy5JzLfINy9-134" value="" style="endArrow=none;html=1;rounded=0;strokeWidth=3;" edge="1" parent="WIyWlLk6GJQsqaUBKTNV-1">
          <mxGeometry width="50" height="50" relative="1" as="geometry">
            <mxPoint x="1440" y="4401" as="sourcePoint" />
            <mxPoint x="1440" y="4361" as="targetPoint" />
          </mxGeometry>
        </mxCell>
        <mxCell id="lyI1Rf6VEcy5JzLfINy9-135" value="" style="endArrow=none;html=1;rounded=0;strokeWidth=3;" edge="1" parent="WIyWlLk6GJQsqaUBKTNV-1">
          <mxGeometry width="50" height="50" relative="1" as="geometry">
            <mxPoint x="1520" y="4240" as="sourcePoint" />
            <mxPoint x="1520" y="4441" as="targetPoint" />
          </mxGeometry>
        </mxCell>
        <mxCell id="lyI1Rf6VEcy5JzLfINy9-136" value="" style="endArrow=none;html=1;rounded=0;strokeWidth=3;" edge="1" parent="WIyWlLk6GJQsqaUBKTNV-1">
          <mxGeometry width="50" height="50" relative="1" as="geometry">
            <mxPoint x="1200" y="4241" as="sourcePoint" />
            <mxPoint x="1200" y="4441" as="targetPoint" />
          </mxGeometry>
        </mxCell>
        <mxCell id="lyI1Rf6VEcy5JzLfINy9-137" value="&lt;font style=&quot;font-size: 50px;&quot;&gt;9&lt;/font&gt;" style="text;html=1;align=center;verticalAlign=middle;whiteSpace=wrap;rounded=0;" vertex="1" parent="WIyWlLk6GJQsqaUBKTNV-1">
          <mxGeometry x="1209" y="4266" width="60" height="30" as="geometry" />
        </mxCell>
        <mxCell id="lyI1Rf6VEcy5JzLfINy9-138" value="&lt;font style=&quot;font-size: 50px;&quot;&gt;10&lt;/font&gt;" style="text;html=1;align=center;verticalAlign=middle;whiteSpace=wrap;rounded=0;" vertex="1" parent="WIyWlLk6GJQsqaUBKTNV-1">
          <mxGeometry x="1290" y="4311" width="60" height="30" as="geometry" />
        </mxCell>
        <mxCell id="lyI1Rf6VEcy5JzLfINy9-139" value="&lt;font style=&quot;font-size: 50px;&quot;&gt;11&lt;/font&gt;" style="text;html=1;align=center;verticalAlign=middle;whiteSpace=wrap;rounded=0;" vertex="1" parent="WIyWlLk6GJQsqaUBKTNV-1">
          <mxGeometry x="1369" y="4345" width="60" height="30" as="geometry" />
        </mxCell>
        <mxCell id="lyI1Rf6VEcy5JzLfINy9-140" value="&lt;font style=&quot;font-size: 50px;&quot;&gt;12&lt;/font&gt;" style="text;html=1;align=center;verticalAlign=middle;whiteSpace=wrap;rounded=0;" vertex="1" parent="WIyWlLk6GJQsqaUBKTNV-1">
          <mxGeometry x="1449" y="4391" width="60" height="30" as="geometry" />
        </mxCell>
        <mxCell id="lyI1Rf6VEcy5JzLfINy9-141" value="" style="endArrow=none;html=1;rounded=0;strokeWidth=3;" edge="1" parent="WIyWlLk6GJQsqaUBKTNV-1">
          <mxGeometry width="50" height="50" relative="1" as="geometry">
            <mxPoint x="1200" y="4440.24" as="sourcePoint" />
            <mxPoint x="1520" y="4440.24" as="targetPoint" />
          </mxGeometry>
        </mxCell>
        <mxCell id="lyI1Rf6VEcy5JzLfINy9-142" value="&lt;font style=&quot;font-size: 50px;&quot;&gt;Frames&lt;/font&gt;" style="text;html=1;align=center;verticalAlign=middle;whiteSpace=wrap;rounded=0;" vertex="1" parent="WIyWlLk6GJQsqaUBKTNV-1">
          <mxGeometry x="1339" y="4480" width="60" height="30" as="geometry" />
        </mxCell>
        <mxCell id="lyI1Rf6VEcy5JzLfINy9-145" value="1" style="rounded=1;whiteSpace=wrap;html=1;strokeWidth=3;fontSize=44;fillColor=#d5e8d4;strokeColor=#000000;fillStyle=cross-hatch;" vertex="1" parent="WIyWlLk6GJQsqaUBKTNV-1">
          <mxGeometry x="752.76" y="4770" width="255" height="60" as="geometry" />
        </mxCell>
        <mxCell id="lyI1Rf6VEcy5JzLfINy9-146" value="3" style="rounded=1;whiteSpace=wrap;html=1;strokeWidth=3;fontSize=44;fillColor=#FF6666;strokeColor=#b85450;fillStyle=zigzag-line;" vertex="1" parent="WIyWlLk6GJQsqaUBKTNV-1">
          <mxGeometry x="752.76" y="4850" width="255" height="60" as="geometry" />
        </mxCell>
        <mxCell id="lyI1Rf6VEcy5JzLfINy9-147" value="5" style="rounded=1;whiteSpace=wrap;html=1;strokeWidth=3;fontSize=44;fillColor=#d5e8d4;strokeColor=#000000;fillStyle=cross-hatch;" vertex="1" parent="WIyWlLk6GJQsqaUBKTNV-1">
          <mxGeometry x="752.75" y="4930" width="255" height="60" as="geometry" />
        </mxCell>
        <mxCell id="lyI1Rf6VEcy5JzLfINy9-148" value="2" style="rounded=1;whiteSpace=wrap;html=1;strokeWidth=3;fontSize=44;fillColor=#d5e8d4;strokeColor=#000000;fillStyle=cross-hatch;" vertex="1" parent="WIyWlLk6GJQsqaUBKTNV-1">
          <mxGeometry x="1042.63" y="4770" width="255" height="60" as="geometry" />
        </mxCell>
        <mxCell id="lyI1Rf6VEcy5JzLfINy9-149" value="4" style="rounded=1;whiteSpace=wrap;html=1;strokeWidth=3;fontSize=44;fillColor=#d5e8d4;strokeColor=#000000;fillStyle=cross-hatch;" vertex="1" parent="WIyWlLk6GJQsqaUBKTNV-1">
          <mxGeometry x="1042.63" y="4850" width="255" height="60" as="geometry" />
        </mxCell>
        <mxCell id="lyI1Rf6VEcy5JzLfINy9-150" value="6" style="rounded=1;whiteSpace=wrap;html=1;strokeWidth=3;fontSize=44;fillColor=#d5e8d4;strokeColor=#000000;fillStyle=cross-hatch;" vertex="1" parent="WIyWlLk6GJQsqaUBKTNV-1">
          <mxGeometry x="1042.63" y="4930" width="255" height="60" as="geometry" />
        </mxCell>
        <mxCell id="lyI1Rf6VEcy5JzLfINy9-151" value="&lt;font style=&quot;font-size: 24px;&quot;&gt;HMAC R1&lt;/font&gt;" style="rounded=0;whiteSpace=wrap;html=1;strokeWidth=3;fillColor=#d5e8d4;strokeColor=#000000;fillStyle=cross-hatch;" vertex="1" parent="WIyWlLk6GJQsqaUBKTNV-1">
          <mxGeometry x="1340.13" y="4775" width="120" height="50" as="geometry" />
        </mxCell>
        <mxCell id="lyI1Rf6VEcy5JzLfINy9-152" value="&lt;font style=&quot;font-size: 24px;&quot;&gt;HMAC R2&lt;/font&gt;" style="rounded=0;whiteSpace=wrap;html=1;strokeWidth=3;fillStyle=cross-hatch;fillColor=#FF9999;" vertex="1" parent="WIyWlLk6GJQsqaUBKTNV-1">
          <mxGeometry x="1340.13" y="4855" width="120" height="50" as="geometry" />
        </mxCell>
        <mxCell id="lyI1Rf6VEcy5JzLfINy9-153" value="&lt;font style=&quot;font-size: 24px;&quot;&gt;HMAC R3&lt;/font&gt;" style="rounded=0;whiteSpace=wrap;html=1;strokeWidth=3;fillColor=#d5e8d4;strokeColor=#000000;fillStyle=cross-hatch;" vertex="1" parent="WIyWlLk6GJQsqaUBKTNV-1">
          <mxGeometry x="1341.13" y="4935" width="120" height="50" as="geometry" />
        </mxCell>
        <mxCell id="lyI1Rf6VEcy5JzLfINy9-154" value="&lt;font style=&quot;font-size: 24px;&quot;&gt;HMAC C1&lt;/font&gt;" style="rounded=0;whiteSpace=wrap;html=1;strokeWidth=3;fillColor=#FF9999;fillStyle=cross-hatch;" vertex="1" parent="WIyWlLk6GJQsqaUBKTNV-1">
          <mxGeometry x="820.26" y="5020" width="120" height="50" as="geometry" />
        </mxCell>
        <mxCell id="lyI1Rf6VEcy5JzLfINy9-155" value="&lt;font style=&quot;font-size: 24px;&quot;&gt;HMAC C2&lt;/font&gt;" style="rounded=0;whiteSpace=wrap;html=1;strokeWidth=3;fillColor=#d5e8d4;strokeColor=#000000;fillStyle=cross-hatch;" vertex="1" parent="WIyWlLk6GJQsqaUBKTNV-1">
          <mxGeometry x="1110.13" y="5020" width="120" height="50" as="geometry" />
        </mxCell>
        <mxCell id="lyI1Rf6VEcy5JzLfINy9-156" value="" style="endArrow=none;html=1;rounded=0;strokeWidth=3;" edge="1" parent="WIyWlLk6GJQsqaUBKTNV-1">
          <mxGeometry width="50" height="50" relative="1" as="geometry">
            <mxPoint x="343.6200000000001" y="4660" as="sourcePoint" />
            <mxPoint x="663.6200000000001" y="4660" as="targetPoint" />
          </mxGeometry>
        </mxCell>
        <mxCell id="lyI1Rf6VEcy5JzLfINy9-157" value="" style="endArrow=none;html=1;rounded=0;strokeWidth=3;" edge="1" parent="WIyWlLk6GJQsqaUBKTNV-1">
          <mxGeometry width="50" height="50" relative="1" as="geometry">
            <mxPoint x="423.6200000000001" y="4699" as="sourcePoint" />
            <mxPoint x="663.6200000000001" y="4699" as="targetPoint" />
          </mxGeometry>
        </mxCell>
        <mxCell id="lyI1Rf6VEcy5JzLfINy9-158" value="" style="endArrow=none;html=1;rounded=0;strokeWidth=3;" edge="1" parent="WIyWlLk6GJQsqaUBKTNV-1">
          <mxGeometry width="50" height="50" relative="1" as="geometry">
            <mxPoint x="503.6200000000001" y="4741" as="sourcePoint" />
            <mxPoint x="663.6200000000001" y="4741" as="targetPoint" />
          </mxGeometry>
        </mxCell>
        <mxCell id="lyI1Rf6VEcy5JzLfINy9-159" value="" style="endArrow=none;html=1;rounded=0;strokeWidth=3;" edge="1" parent="WIyWlLk6GJQsqaUBKTNV-1">
          <mxGeometry width="50" height="50" relative="1" as="geometry">
            <mxPoint x="583.6200000000001" y="4782" as="sourcePoint" />
            <mxPoint x="663.6200000000001" y="4782" as="targetPoint" />
          </mxGeometry>
        </mxCell>
        <mxCell id="lyI1Rf6VEcy5JzLfINy9-160" value="" style="endArrow=none;html=1;rounded=0;strokeWidth=3;" edge="1" parent="WIyWlLk6GJQsqaUBKTNV-1">
          <mxGeometry width="50" height="50" relative="1" as="geometry">
            <mxPoint x="343.6200000000001" y="4740" as="sourcePoint" />
            <mxPoint x="422.6200000000001" y="4740" as="targetPoint" />
          </mxGeometry>
        </mxCell>
        <mxCell id="lyI1Rf6VEcy5JzLfINy9-161" value="" style="endArrow=none;html=1;rounded=0;strokeWidth=3;" edge="1" parent="WIyWlLk6GJQsqaUBKTNV-1">
          <mxGeometry width="50" height="50" relative="1" as="geometry">
            <mxPoint x="342.6200000000001" y="4781" as="sourcePoint" />
            <mxPoint x="503.6200000000001" y="4781" as="targetPoint" />
          </mxGeometry>
        </mxCell>
        <mxCell id="lyI1Rf6VEcy5JzLfINy9-162" value="" style="endArrow=none;html=1;rounded=0;strokeWidth=3;" edge="1" parent="WIyWlLk6GJQsqaUBKTNV-1">
          <mxGeometry width="50" height="50" relative="1" as="geometry">
            <mxPoint x="423.6200000000001" y="4741" as="sourcePoint" />
            <mxPoint x="423.6200000000001" y="4698" as="targetPoint" />
          </mxGeometry>
        </mxCell>
        <mxCell id="lyI1Rf6VEcy5JzLfINy9-163" value="" style="endArrow=none;html=1;rounded=0;strokeWidth=3;" edge="1" parent="WIyWlLk6GJQsqaUBKTNV-1">
          <mxGeometry width="50" height="50" relative="1" as="geometry">
            <mxPoint x="503.6200000000001" y="4781" as="sourcePoint" />
            <mxPoint x="503.6200000000001" y="4740" as="targetPoint" />
          </mxGeometry>
        </mxCell>
        <mxCell id="lyI1Rf6VEcy5JzLfINy9-164" value="" style="endArrow=none;html=1;rounded=0;strokeWidth=3;" edge="1" parent="WIyWlLk6GJQsqaUBKTNV-1">
          <mxGeometry width="50" height="50" relative="1" as="geometry">
            <mxPoint x="342.6200000000001" y="4822.33" as="sourcePoint" />
            <mxPoint x="583.6200000000001" y="4822" as="targetPoint" />
          </mxGeometry>
        </mxCell>
        <mxCell id="lyI1Rf6VEcy5JzLfINy9-165" value="" style="endArrow=none;html=1;rounded=0;strokeWidth=3;" edge="1" parent="WIyWlLk6GJQsqaUBKTNV-1">
          <mxGeometry width="50" height="50" relative="1" as="geometry">
            <mxPoint x="583.6200000000001" y="4821" as="sourcePoint" />
            <mxPoint x="583.6200000000001" y="4781" as="targetPoint" />
          </mxGeometry>
        </mxCell>
        <mxCell id="lyI1Rf6VEcy5JzLfINy9-166" value="" style="endArrow=none;html=1;rounded=0;strokeWidth=3;" edge="1" parent="WIyWlLk6GJQsqaUBKTNV-1">
          <mxGeometry width="50" height="50" relative="1" as="geometry">
            <mxPoint x="663.6200000000001" y="4660" as="sourcePoint" />
            <mxPoint x="663.6200000000001" y="4861" as="targetPoint" />
          </mxGeometry>
        </mxCell>
        <mxCell id="lyI1Rf6VEcy5JzLfINy9-167" value="" style="endArrow=none;html=1;rounded=0;strokeWidth=3;" edge="1" parent="WIyWlLk6GJQsqaUBKTNV-1">
          <mxGeometry width="50" height="50" relative="1" as="geometry">
            <mxPoint x="343.6200000000001" y="4661" as="sourcePoint" />
            <mxPoint x="343.6200000000001" y="4861" as="targetPoint" />
          </mxGeometry>
        </mxCell>
        <mxCell id="lyI1Rf6VEcy5JzLfINy9-168" value="&lt;font style=&quot;font-size: 50px;&quot;&gt;1&lt;/font&gt;" style="text;html=1;align=center;verticalAlign=middle;whiteSpace=wrap;rounded=0;" vertex="1" parent="WIyWlLk6GJQsqaUBKTNV-1">
          <mxGeometry x="352.6200000000001" y="4686" width="60" height="30" as="geometry" />
        </mxCell>
        <mxCell id="lyI1Rf6VEcy5JzLfINy9-169" value="&lt;font style=&quot;font-size: 50px;&quot;&gt;2&lt;/font&gt;" style="text;html=1;align=center;verticalAlign=middle;whiteSpace=wrap;rounded=0;" vertex="1" parent="WIyWlLk6GJQsqaUBKTNV-1">
          <mxGeometry x="433.6200000000001" y="4731" width="60" height="30" as="geometry" />
        </mxCell>
        <mxCell id="lyI1Rf6VEcy5JzLfINy9-170" value="&lt;font style=&quot;font-size: 50px;&quot;&gt;3&lt;/font&gt;" style="text;html=1;align=center;verticalAlign=middle;whiteSpace=wrap;rounded=0;" vertex="1" parent="WIyWlLk6GJQsqaUBKTNV-1">
          <mxGeometry x="512.6200000000001" y="4765" width="60" height="30" as="geometry" />
        </mxCell>
        <mxCell id="lyI1Rf6VEcy5JzLfINy9-171" value="&lt;font style=&quot;font-size: 50px;&quot;&gt;4&lt;/font&gt;" style="text;html=1;align=center;verticalAlign=middle;whiteSpace=wrap;rounded=0;" vertex="1" parent="WIyWlLk6GJQsqaUBKTNV-1">
          <mxGeometry x="592.6200000000001" y="4811" width="60" height="30" as="geometry" />
        </mxCell>
        <mxCell id="lyI1Rf6VEcy5JzLfINy9-172" value="" style="endArrow=none;html=1;rounded=0;strokeWidth=3;" edge="1" parent="WIyWlLk6GJQsqaUBKTNV-1">
          <mxGeometry width="50" height="50" relative="1" as="geometry">
            <mxPoint x="343.6200000000001" y="4860.24" as="sourcePoint" />
            <mxPoint x="663.6200000000001" y="4860.24" as="targetPoint" />
          </mxGeometry>
        </mxCell>
        <mxCell id="lyI1Rf6VEcy5JzLfINy9-173" value="" style="endArrow=none;html=1;rounded=0;strokeWidth=3;" edge="1" parent="WIyWlLk6GJQsqaUBKTNV-1">
          <mxGeometry width="50" height="50" relative="1" as="geometry">
            <mxPoint x="343.6200000000001" y="4861" as="sourcePoint" />
            <mxPoint x="663.6200000000001" y="4861" as="targetPoint" />
          </mxGeometry>
        </mxCell>
        <mxCell id="lyI1Rf6VEcy5JzLfINy9-174" value="" style="endArrow=none;html=1;rounded=0;strokeWidth=3;" edge="1" parent="WIyWlLk6GJQsqaUBKTNV-1">
          <mxGeometry width="50" height="50" relative="1" as="geometry">
            <mxPoint x="423.6200000000001" y="4900" as="sourcePoint" />
            <mxPoint x="663.6200000000001" y="4900" as="targetPoint" />
          </mxGeometry>
        </mxCell>
        <mxCell id="lyI1Rf6VEcy5JzLfINy9-175" value="" style="endArrow=none;html=1;rounded=0;strokeWidth=3;" edge="1" parent="WIyWlLk6GJQsqaUBKTNV-1">
          <mxGeometry width="50" height="50" relative="1" as="geometry">
            <mxPoint x="503.6200000000001" y="4942" as="sourcePoint" />
            <mxPoint x="663.6200000000001" y="4942" as="targetPoint" />
          </mxGeometry>
        </mxCell>
        <mxCell id="lyI1Rf6VEcy5JzLfINy9-176" value="" style="endArrow=none;html=1;rounded=0;strokeWidth=3;" edge="1" parent="WIyWlLk6GJQsqaUBKTNV-1">
          <mxGeometry width="50" height="50" relative="1" as="geometry">
            <mxPoint x="583.6200000000001" y="4983" as="sourcePoint" />
            <mxPoint x="663.6200000000001" y="4983" as="targetPoint" />
          </mxGeometry>
        </mxCell>
        <mxCell id="lyI1Rf6VEcy5JzLfINy9-177" value="" style="endArrow=none;html=1;rounded=0;strokeWidth=3;" edge="1" parent="WIyWlLk6GJQsqaUBKTNV-1">
          <mxGeometry width="50" height="50" relative="1" as="geometry">
            <mxPoint x="343.6200000000001" y="4941" as="sourcePoint" />
            <mxPoint x="422.6200000000001" y="4941" as="targetPoint" />
          </mxGeometry>
        </mxCell>
        <mxCell id="lyI1Rf6VEcy5JzLfINy9-178" value="" style="endArrow=none;html=1;rounded=0;strokeWidth=3;" edge="1" parent="WIyWlLk6GJQsqaUBKTNV-1">
          <mxGeometry width="50" height="50" relative="1" as="geometry">
            <mxPoint x="342.6200000000001" y="4982" as="sourcePoint" />
            <mxPoint x="503.6200000000001" y="4982" as="targetPoint" />
          </mxGeometry>
        </mxCell>
        <mxCell id="lyI1Rf6VEcy5JzLfINy9-179" value="" style="endArrow=none;html=1;rounded=0;strokeWidth=3;" edge="1" parent="WIyWlLk6GJQsqaUBKTNV-1">
          <mxGeometry width="50" height="50" relative="1" as="geometry">
            <mxPoint x="423.6200000000001" y="4942" as="sourcePoint" />
            <mxPoint x="423.6200000000001" y="4899" as="targetPoint" />
          </mxGeometry>
        </mxCell>
        <mxCell id="lyI1Rf6VEcy5JzLfINy9-180" value="" style="endArrow=none;html=1;rounded=0;strokeWidth=3;" edge="1" parent="WIyWlLk6GJQsqaUBKTNV-1">
          <mxGeometry width="50" height="50" relative="1" as="geometry">
            <mxPoint x="503.6200000000001" y="4982" as="sourcePoint" />
            <mxPoint x="503.6200000000001" y="4941" as="targetPoint" />
          </mxGeometry>
        </mxCell>
        <mxCell id="lyI1Rf6VEcy5JzLfINy9-181" value="" style="endArrow=none;html=1;rounded=0;strokeWidth=3;" edge="1" parent="WIyWlLk6GJQsqaUBKTNV-1">
          <mxGeometry width="50" height="50" relative="1" as="geometry">
            <mxPoint x="342.6200000000001" y="5023.33" as="sourcePoint" />
            <mxPoint x="583.6200000000001" y="5023" as="targetPoint" />
          </mxGeometry>
        </mxCell>
        <mxCell id="lyI1Rf6VEcy5JzLfINy9-182" value="" style="endArrow=none;html=1;rounded=0;strokeWidth=3;" edge="1" parent="WIyWlLk6GJQsqaUBKTNV-1">
          <mxGeometry width="50" height="50" relative="1" as="geometry">
            <mxPoint x="583.6200000000001" y="5022" as="sourcePoint" />
            <mxPoint x="583.6200000000001" y="4982" as="targetPoint" />
          </mxGeometry>
        </mxCell>
        <mxCell id="lyI1Rf6VEcy5JzLfINy9-183" value="" style="endArrow=none;html=1;rounded=0;strokeWidth=3;" edge="1" parent="WIyWlLk6GJQsqaUBKTNV-1">
          <mxGeometry width="50" height="50" relative="1" as="geometry">
            <mxPoint x="663.6200000000001" y="4861" as="sourcePoint" />
            <mxPoint x="663.6200000000001" y="5062" as="targetPoint" />
          </mxGeometry>
        </mxCell>
        <mxCell id="lyI1Rf6VEcy5JzLfINy9-184" value="" style="endArrow=none;html=1;rounded=0;strokeWidth=3;" edge="1" parent="WIyWlLk6GJQsqaUBKTNV-1">
          <mxGeometry width="50" height="50" relative="1" as="geometry">
            <mxPoint x="343.6200000000001" y="4862" as="sourcePoint" />
            <mxPoint x="343.6200000000001" y="5062" as="targetPoint" />
          </mxGeometry>
        </mxCell>
        <mxCell id="lyI1Rf6VEcy5JzLfINy9-185" value="&lt;span style=&quot;font-size: 50px;&quot;&gt;5&lt;/span&gt;" style="text;html=1;align=center;verticalAlign=middle;whiteSpace=wrap;rounded=0;" vertex="1" parent="WIyWlLk6GJQsqaUBKTNV-1">
          <mxGeometry x="352.6200000000001" y="4887" width="60" height="30" as="geometry" />
        </mxCell>
        <mxCell id="lyI1Rf6VEcy5JzLfINy9-186" value="&lt;font style=&quot;font-size: 50px;&quot;&gt;6&lt;/font&gt;" style="text;html=1;align=center;verticalAlign=middle;whiteSpace=wrap;rounded=0;" vertex="1" parent="WIyWlLk6GJQsqaUBKTNV-1">
          <mxGeometry x="433.6200000000001" y="4932" width="60" height="30" as="geometry" />
        </mxCell>
        <mxCell id="lyI1Rf6VEcy5JzLfINy9-187" value="&lt;font style=&quot;font-size: 50px;&quot;&gt;7&lt;/font&gt;" style="text;html=1;align=center;verticalAlign=middle;whiteSpace=wrap;rounded=0;" vertex="1" parent="WIyWlLk6GJQsqaUBKTNV-1">
          <mxGeometry x="512.6200000000001" y="4966" width="60" height="30" as="geometry" />
        </mxCell>
        <mxCell id="lyI1Rf6VEcy5JzLfINy9-188" value="&lt;font style=&quot;font-size: 50px;&quot;&gt;8&lt;/font&gt;" style="text;html=1;align=center;verticalAlign=middle;whiteSpace=wrap;rounded=0;" vertex="1" parent="WIyWlLk6GJQsqaUBKTNV-1">
          <mxGeometry x="592.6200000000001" y="5012" width="60" height="30" as="geometry" />
        </mxCell>
        <mxCell id="lyI1Rf6VEcy5JzLfINy9-189" value="" style="endArrow=none;html=1;rounded=0;strokeWidth=3;" edge="1" parent="WIyWlLk6GJQsqaUBKTNV-1">
          <mxGeometry width="50" height="50" relative="1" as="geometry">
            <mxPoint x="343.6200000000001" y="5061.24" as="sourcePoint" />
            <mxPoint x="663.6200000000001" y="5061.24" as="targetPoint" />
          </mxGeometry>
        </mxCell>
        <mxCell id="lyI1Rf6VEcy5JzLfINy9-190" value="" style="endArrow=none;html=1;rounded=0;strokeWidth=3;" edge="1" parent="WIyWlLk6GJQsqaUBKTNV-1">
          <mxGeometry width="50" height="50" relative="1" as="geometry">
            <mxPoint x="343.6200000000001" y="5061" as="sourcePoint" />
            <mxPoint x="663.6200000000001" y="5061" as="targetPoint" />
          </mxGeometry>
        </mxCell>
        <mxCell id="lyI1Rf6VEcy5JzLfINy9-191" value="" style="endArrow=none;html=1;rounded=0;strokeWidth=3;" edge="1" parent="WIyWlLk6GJQsqaUBKTNV-1">
          <mxGeometry width="50" height="50" relative="1" as="geometry">
            <mxPoint x="423.6200000000001" y="5100" as="sourcePoint" />
            <mxPoint x="663.6200000000001" y="5100" as="targetPoint" />
          </mxGeometry>
        </mxCell>
        <mxCell id="lyI1Rf6VEcy5JzLfINy9-192" value="" style="endArrow=none;html=1;rounded=0;strokeWidth=3;" edge="1" parent="WIyWlLk6GJQsqaUBKTNV-1">
          <mxGeometry width="50" height="50" relative="1" as="geometry">
            <mxPoint x="503.6200000000001" y="5142" as="sourcePoint" />
            <mxPoint x="663.6200000000001" y="5142" as="targetPoint" />
          </mxGeometry>
        </mxCell>
        <mxCell id="lyI1Rf6VEcy5JzLfINy9-193" value="" style="endArrow=none;html=1;rounded=0;strokeWidth=3;" edge="1" parent="WIyWlLk6GJQsqaUBKTNV-1">
          <mxGeometry width="50" height="50" relative="1" as="geometry">
            <mxPoint x="583.6200000000001" y="5183" as="sourcePoint" />
            <mxPoint x="663.6200000000001" y="5183" as="targetPoint" />
          </mxGeometry>
        </mxCell>
        <mxCell id="lyI1Rf6VEcy5JzLfINy9-194" value="" style="endArrow=none;html=1;rounded=0;strokeWidth=3;" edge="1" parent="WIyWlLk6GJQsqaUBKTNV-1">
          <mxGeometry width="50" height="50" relative="1" as="geometry">
            <mxPoint x="343.6200000000001" y="5141" as="sourcePoint" />
            <mxPoint x="422.6200000000001" y="5141" as="targetPoint" />
          </mxGeometry>
        </mxCell>
        <mxCell id="lyI1Rf6VEcy5JzLfINy9-195" value="" style="endArrow=none;html=1;rounded=0;strokeWidth=3;" edge="1" parent="WIyWlLk6GJQsqaUBKTNV-1">
          <mxGeometry width="50" height="50" relative="1" as="geometry">
            <mxPoint x="342.6200000000001" y="5182" as="sourcePoint" />
            <mxPoint x="503.6200000000001" y="5182" as="targetPoint" />
          </mxGeometry>
        </mxCell>
        <mxCell id="lyI1Rf6VEcy5JzLfINy9-196" value="" style="endArrow=none;html=1;rounded=0;strokeWidth=3;" edge="1" parent="WIyWlLk6GJQsqaUBKTNV-1">
          <mxGeometry width="50" height="50" relative="1" as="geometry">
            <mxPoint x="423.6200000000001" y="5142" as="sourcePoint" />
            <mxPoint x="423.6200000000001" y="5099" as="targetPoint" />
          </mxGeometry>
        </mxCell>
        <mxCell id="lyI1Rf6VEcy5JzLfINy9-197" value="" style="endArrow=none;html=1;rounded=0;strokeWidth=3;" edge="1" parent="WIyWlLk6GJQsqaUBKTNV-1">
          <mxGeometry width="50" height="50" relative="1" as="geometry">
            <mxPoint x="503.6200000000001" y="5182" as="sourcePoint" />
            <mxPoint x="503.6200000000001" y="5141" as="targetPoint" />
          </mxGeometry>
        </mxCell>
        <mxCell id="lyI1Rf6VEcy5JzLfINy9-198" value="" style="endArrow=none;html=1;rounded=0;strokeWidth=3;" edge="1" parent="WIyWlLk6GJQsqaUBKTNV-1">
          <mxGeometry width="50" height="50" relative="1" as="geometry">
            <mxPoint x="342.6200000000001" y="5223.33" as="sourcePoint" />
            <mxPoint x="583.6200000000001" y="5223" as="targetPoint" />
          </mxGeometry>
        </mxCell>
        <mxCell id="lyI1Rf6VEcy5JzLfINy9-199" value="" style="endArrow=none;html=1;rounded=0;strokeWidth=3;" edge="1" parent="WIyWlLk6GJQsqaUBKTNV-1">
          <mxGeometry width="50" height="50" relative="1" as="geometry">
            <mxPoint x="583.6200000000001" y="5222" as="sourcePoint" />
            <mxPoint x="583.6200000000001" y="5182" as="targetPoint" />
          </mxGeometry>
        </mxCell>
        <mxCell id="lyI1Rf6VEcy5JzLfINy9-200" value="" style="endArrow=none;html=1;rounded=0;strokeWidth=3;" edge="1" parent="WIyWlLk6GJQsqaUBKTNV-1">
          <mxGeometry width="50" height="50" relative="1" as="geometry">
            <mxPoint x="663.6200000000001" y="5061" as="sourcePoint" />
            <mxPoint x="663.6200000000001" y="5262" as="targetPoint" />
          </mxGeometry>
        </mxCell>
        <mxCell id="lyI1Rf6VEcy5JzLfINy9-201" value="" style="endArrow=none;html=1;rounded=0;strokeWidth=3;" edge="1" parent="WIyWlLk6GJQsqaUBKTNV-1">
          <mxGeometry width="50" height="50" relative="1" as="geometry">
            <mxPoint x="343.6200000000001" y="5062" as="sourcePoint" />
            <mxPoint x="343.6200000000001" y="5262" as="targetPoint" />
          </mxGeometry>
        </mxCell>
        <mxCell id="lyI1Rf6VEcy5JzLfINy9-202" value="&lt;font style=&quot;font-size: 50px;&quot;&gt;9&lt;/font&gt;" style="text;html=1;align=center;verticalAlign=middle;whiteSpace=wrap;rounded=0;" vertex="1" parent="WIyWlLk6GJQsqaUBKTNV-1">
          <mxGeometry x="352.6200000000001" y="5087" width="60" height="30" as="geometry" />
        </mxCell>
        <mxCell id="lyI1Rf6VEcy5JzLfINy9-203" value="&lt;font style=&quot;font-size: 50px;&quot;&gt;10&lt;/font&gt;" style="text;html=1;align=center;verticalAlign=middle;whiteSpace=wrap;rounded=0;" vertex="1" parent="WIyWlLk6GJQsqaUBKTNV-1">
          <mxGeometry x="433.6200000000001" y="5132" width="60" height="30" as="geometry" />
        </mxCell>
        <mxCell id="lyI1Rf6VEcy5JzLfINy9-204" value="&lt;font style=&quot;font-size: 50px;&quot;&gt;11&lt;/font&gt;" style="text;html=1;align=center;verticalAlign=middle;whiteSpace=wrap;rounded=0;" vertex="1" parent="WIyWlLk6GJQsqaUBKTNV-1">
          <mxGeometry x="512.6200000000001" y="5166" width="60" height="30" as="geometry" />
        </mxCell>
        <mxCell id="lyI1Rf6VEcy5JzLfINy9-205" value="&lt;font style=&quot;font-size: 50px;&quot;&gt;12&lt;/font&gt;" style="text;html=1;align=center;verticalAlign=middle;whiteSpace=wrap;rounded=0;" vertex="1" parent="WIyWlLk6GJQsqaUBKTNV-1">
          <mxGeometry x="592.6200000000001" y="5212" width="60" height="30" as="geometry" />
        </mxCell>
        <mxCell id="lyI1Rf6VEcy5JzLfINy9-206" value="" style="endArrow=none;html=1;rounded=0;strokeWidth=3;" edge="1" parent="WIyWlLk6GJQsqaUBKTNV-1">
          <mxGeometry width="50" height="50" relative="1" as="geometry">
            <mxPoint x="343.6200000000001" y="5261.24" as="sourcePoint" />
            <mxPoint x="663.6200000000001" y="5261.24" as="targetPoint" />
          </mxGeometry>
        </mxCell>
        <mxCell id="lyI1Rf6VEcy5JzLfINy9-207" value="&lt;font style=&quot;font-size: 50px;&quot;&gt;Frames&lt;/font&gt;" style="text;html=1;align=center;verticalAlign=middle;whiteSpace=wrap;rounded=0;" vertex="1" parent="WIyWlLk6GJQsqaUBKTNV-1">
          <mxGeometry x="482.6200000000001" y="5301" width="60" height="30" as="geometry" />
        </mxCell>
        <mxCell id="lyI1Rf6VEcy5JzLfINy9-208" value="" style="rounded=0;whiteSpace=wrap;html=1;strokeColor=none;fillColor=#FF0000;fillStyle=zigzag-line;" vertex="1" parent="WIyWlLk6GJQsqaUBKTNV-1">
          <mxGeometry x="342.6200000000001" y="4780" width="240" height="40" as="geometry" />
        </mxCell>
        <mxCell id="lyI1Rf6VEcy5JzLfINy9-209" value="" style="rounded=0;whiteSpace=wrap;html=1;strokeColor=none;fillStyle=zigzag-line;fillColor=#FF0000;" vertex="1" parent="WIyWlLk6GJQsqaUBKTNV-1">
          <mxGeometry x="502.6200000000001" y="4740" width="160" height="40" as="geometry" />
        </mxCell>
        <mxCell id="lyI1Rf6VEcy5JzLfINy9-210" value="&lt;font style=&quot;font-size: 23px;&quot;&gt;1&amp;nbsp; &amp;nbsp; &amp;nbsp;2&lt;/font&gt;" style="text;html=1;align=center;verticalAlign=middle;whiteSpace=wrap;rounded=0;" vertex="1" parent="WIyWlLk6GJQsqaUBKTNV-1">
          <mxGeometry x="1500" y="4781" width="60" height="30" as="geometry" />
        </mxCell>
        <mxCell id="lyI1Rf6VEcy5JzLfINy9-211" value="&lt;font style=&quot;font-size: 23px;&quot;&gt;5&amp;nbsp; &amp;nbsp; &amp;nbsp;6&lt;/font&gt;" style="text;html=1;align=center;verticalAlign=middle;whiteSpace=wrap;rounded=0;" vertex="1" parent="WIyWlLk6GJQsqaUBKTNV-1">
          <mxGeometry x="1500" y="4945" width="60" height="30" as="geometry" />
        </mxCell>
        <mxCell id="lyI1Rf6VEcy5JzLfINy9-212" value="&lt;font style=&quot;font-size: 23px;&quot;&gt;3&amp;nbsp; &amp;nbsp; &amp;nbsp;4&lt;/font&gt;" style="text;html=1;align=center;verticalAlign=middle;whiteSpace=wrap;rounded=0;" vertex="1" parent="WIyWlLk6GJQsqaUBKTNV-1">
          <mxGeometry x="1500" y="4865" width="60" height="30" as="geometry" />
        </mxCell>
        <mxCell id="lyI1Rf6VEcy5JzLfINy9-213" value="&lt;font style=&quot;font-size: 23px;&quot;&gt;1&amp;nbsp; &amp;nbsp; &amp;nbsp; 3&amp;nbsp; &amp;nbsp; &amp;nbsp; 5&lt;/font&gt;" style="text;html=1;align=center;verticalAlign=middle;whiteSpace=wrap;rounded=0;" vertex="1" parent="WIyWlLk6GJQsqaUBKTNV-1">
          <mxGeometry x="816.25" y="5117" width="118.5" height="30" as="geometry" />
        </mxCell>
        <mxCell id="lyI1Rf6VEcy5JzLfINy9-214" value="&lt;font style=&quot;font-size: 23px;&quot;&gt;2&amp;nbsp; &amp;nbsp; &amp;nbsp; 4&amp;nbsp; &amp;nbsp; &amp;nbsp; 6&lt;/font&gt;" style="text;html=1;align=center;verticalAlign=middle;whiteSpace=wrap;rounded=0;" vertex="1" parent="WIyWlLk6GJQsqaUBKTNV-1">
          <mxGeometry x="1110.88" y="5110" width="118.5" height="30" as="geometry" />
        </mxCell>
        <mxCell id="lyI1Rf6VEcy5JzLfINy9-215" value="" style="sketch=0;html=1;aspect=fixed;strokeColor=none;shadow=0;align=center;fillColor=#2D9C5E;verticalAlign=top;labelPosition=center;verticalLabelPosition=bottom;shape=mxgraph.gcp2.check" vertex="1" parent="WIyWlLk6GJQsqaUBKTNV-1">
          <mxGeometry x="1125" y="5115" width="25" height="20" as="geometry" />
        </mxCell>
        <mxCell id="lyI1Rf6VEcy5JzLfINy9-225" value="" style="shape=cross;whiteSpace=wrap;html=1;fillColor=#FF0000;strokeColor=#b85450;rotation=-45;" vertex="1" parent="WIyWlLk6GJQsqaUBKTNV-1">
          <mxGeometry x="827" y="5122" width="19" height="20" as="geometry" />
        </mxCell>
        <mxCell id="lyI1Rf6VEcy5JzLfINy9-227" value="" style="shape=cross;whiteSpace=wrap;html=1;fillColor=#FF0000;strokeColor=#b85450;rotation=-45;" vertex="1" parent="WIyWlLk6GJQsqaUBKTNV-1">
          <mxGeometry x="880.75" y="5122" width="19" height="20" as="geometry" />
        </mxCell>
        <mxCell id="lyI1Rf6VEcy5JzLfINy9-228" value="" style="shape=cross;whiteSpace=wrap;html=1;fillColor=#FF0000;strokeColor=#b85450;rotation=-45;" vertex="1" parent="WIyWlLk6GJQsqaUBKTNV-1">
          <mxGeometry x="934.75" y="5122" width="19" height="20" as="geometry" />
        </mxCell>
        <mxCell id="lyI1Rf6VEcy5JzLfINy9-230" value="" style="shape=cross;whiteSpace=wrap;html=1;fillColor=#FF0000;strokeColor=#b85450;rotation=-45;" vertex="1" parent="WIyWlLk6GJQsqaUBKTNV-1">
          <mxGeometry x="1513.75" y="4870" width="19" height="20" as="geometry" />
        </mxCell>
        <mxCell id="lyI1Rf6VEcy5JzLfINy9-231" value="" style="shape=cross;whiteSpace=wrap;html=1;fillColor=#FF0000;strokeColor=#b85450;rotation=-45;" vertex="1" parent="WIyWlLk6GJQsqaUBKTNV-1">
          <mxGeometry x="1560" y="4870" width="19" height="20" as="geometry" />
        </mxCell>
        <mxCell id="lyI1Rf6VEcy5JzLfINy9-233" value="&lt;font style=&quot;font-size: 50px;&quot;&gt;&lt;b&gt;Data Packet&lt;/b&gt;&lt;/font&gt;" style="text;html=1;align=center;verticalAlign=middle;whiteSpace=wrap;rounded=0;" vertex="1" parent="WIyWlLk6GJQsqaUBKTNV-1">
          <mxGeometry x="220" y="5430" width="330" height="30" as="geometry" />
        </mxCell>
        <mxCell id="lyI1Rf6VEcy5JzLfINy9-234" value="&lt;font style=&quot;font-size: 23px;&quot;&gt;Header&amp;nbsp;&lt;/font&gt;&lt;div&gt;&lt;font style=&quot;font-size: 23px;&quot;&gt;= 1&lt;/font&gt;&lt;/div&gt;" style="rounded=1;whiteSpace=wrap;html=1;strokeWidth=3;fontSize=25;" vertex="1" parent="WIyWlLk6GJQsqaUBKTNV-1">
          <mxGeometry x="216.75" y="5500" width="120" height="60" as="geometry" />
        </mxCell>
        <mxCell id="lyI1Rf6VEcy5JzLfINy9-235" value="Frame Number" style="rounded=1;whiteSpace=wrap;html=1;strokeWidth=3;fontSize=25;" vertex="1" parent="WIyWlLk6GJQsqaUBKTNV-1">
          <mxGeometry x="338.62" y="5500" width="120" height="60" as="geometry" />
        </mxCell>
        <mxCell id="lyI1Rf6VEcy5JzLfINy9-236" value="Segment Offset" style="rounded=1;whiteSpace=wrap;html=1;strokeWidth=3;fontSize=25;" vertex="1" parent="WIyWlLk6GJQsqaUBKTNV-1">
          <mxGeometry x="460" y="5500" width="120" height="60" as="geometry" />
        </mxCell>
        <mxCell id="lyI1Rf6VEcy5JzLfINy9-237" value="Reserved" style="rounded=1;whiteSpace=wrap;html=1;strokeWidth=3;fontSize=25;" vertex="1" parent="WIyWlLk6GJQsqaUBKTNV-1">
          <mxGeometry x="582.62" y="5500" width="120" height="60" as="geometry" />
        </mxCell>
        <mxCell id="lyI1Rf6VEcy5JzLfINy9-238" value="Data" style="rounded=1;whiteSpace=wrap;html=1;strokeWidth=3;fontSize=25;" vertex="1" parent="WIyWlLk6GJQsqaUBKTNV-1">
          <mxGeometry x="703.62" y="5500" width="886.38" height="60" as="geometry" />
        </mxCell>
        <mxCell id="lyI1Rf6VEcy5JzLfINy9-239" value="&lt;font style=&quot;font-size: 25px;&quot;&gt;Header&amp;nbsp;&lt;/font&gt;&lt;div style=&quot;&quot;&gt;&lt;font style=&quot;font-size: 25px;&quot;&gt;= 2&lt;/font&gt;&lt;/div&gt;" style="rounded=1;whiteSpace=wrap;html=1;strokeWidth=3;fontSize=25;" vertex="1" parent="WIyWlLk6GJQsqaUBKTNV-1">
          <mxGeometry x="220" y="5750" width="120" height="60" as="geometry" />
        </mxCell>
        <mxCell id="lyI1Rf6VEcy5JzLfINy9-240" value="Frame Number" style="rounded=1;whiteSpace=wrap;html=1;strokeWidth=3;fontSize=25;" vertex="1" parent="WIyWlLk6GJQsqaUBKTNV-1">
          <mxGeometry x="341.87" y="5750" width="120" height="60" as="geometry" />
        </mxCell>
        <mxCell id="lyI1Rf6VEcy5JzLfINy9-241" value="Position" style="rounded=1;whiteSpace=wrap;html=1;strokeWidth=3;fontSize=25;" vertex="1" parent="WIyWlLk6GJQsqaUBKTNV-1">
          <mxGeometry x="463.25" y="5750" width="120" height="60" as="geometry" />
        </mxCell>
        <mxCell id="lyI1Rf6VEcy5JzLfINy9-242" value="Type" style="rounded=1;whiteSpace=wrap;html=1;strokeWidth=3;fontSize=25;" vertex="1" parent="WIyWlLk6GJQsqaUBKTNV-1">
          <mxGeometry x="585.87" y="5750" width="120" height="60" as="geometry" />
        </mxCell>
        <mxCell id="lyI1Rf6VEcy5JzLfINy9-243" value="HMAC" style="rounded=1;whiteSpace=wrap;html=1;strokeWidth=3;fontSize=25;" vertex="1" parent="WIyWlLk6GJQsqaUBKTNV-1">
          <mxGeometry x="830" y="5750" width="390" height="60" as="geometry" />
        </mxCell>
        <mxCell id="lyI1Rf6VEcy5JzLfINy9-245" value="&lt;font style=&quot;font-size: 50px;&quot;&gt;&lt;b&gt;Hash Packet&lt;/b&gt;&lt;/font&gt;" style="text;html=1;align=center;verticalAlign=middle;whiteSpace=wrap;rounded=0;" vertex="1" parent="WIyWlLk6GJQsqaUBKTNV-1">
          <mxGeometry x="220" y="5680" width="330" height="30" as="geometry" />
        </mxCell>
        <mxCell id="lyI1Rf6VEcy5JzLfINy9-246" value="Reserved" style="rounded=1;whiteSpace=wrap;html=1;strokeWidth=3;fontSize=25;" vertex="1" parent="WIyWlLk6GJQsqaUBKTNV-1">
          <mxGeometry x="708.25" y="5750" width="120" height="60" as="geometry" />
        </mxCell>
        <mxCell id="lyI1Rf6VEcy5JzLfINy9-248" value="Zeros" style="rounded=1;whiteSpace=wrap;html=1;strokeWidth=3;fontSize=25;" vertex="1" parent="WIyWlLk6GJQsqaUBKTNV-1">
          <mxGeometry x="1220" y="5750" width="370" height="60" as="geometry" />
        </mxCell>
        <mxCell id="lyI1Rf6VEcy5JzLfINy9-249" value="&lt;font style=&quot;font-size: 25px;&quot;&gt;4 bits&lt;/font&gt;" style="text;html=1;align=center;verticalAlign=middle;resizable=0;points=[];autosize=1;strokeColor=none;fillColor=none;" vertex="1" parent="WIyWlLk6GJQsqaUBKTNV-1">
          <mxGeometry x="235.5" y="5575" width="80" height="40" as="geometry" />
        </mxCell>
        <mxCell id="lyI1Rf6VEcy5JzLfINy9-250" value="&lt;font style=&quot;font-size: 25px;&quot;&gt;4 bits&lt;/font&gt;" style="text;html=1;align=center;verticalAlign=middle;resizable=0;points=[];autosize=1;strokeColor=none;fillColor=none;" vertex="1" parent="WIyWlLk6GJQsqaUBKTNV-1">
          <mxGeometry x="357.62" y="5575" width="80" height="40" as="geometry" />
        </mxCell>
        <mxCell id="lyI1Rf6VEcy5JzLfINy9-251" value="&lt;font style=&quot;font-size: 25px;&quot;&gt;4 bits&lt;/font&gt;" style="text;html=1;align=center;verticalAlign=middle;resizable=0;points=[];autosize=1;strokeColor=none;fillColor=none;" vertex="1" parent="WIyWlLk6GJQsqaUBKTNV-1">
          <mxGeometry x="480" y="5575" width="80" height="40" as="geometry" />
        </mxCell>
        <mxCell id="lyI1Rf6VEcy5JzLfINy9-252" value="&lt;font style=&quot;font-size: 25px;&quot;&gt;4 bits&lt;/font&gt;" style="text;html=1;align=center;verticalAlign=middle;resizable=0;points=[];autosize=1;strokeColor=none;fillColor=none;" vertex="1" parent="WIyWlLk6GJQsqaUBKTNV-1">
          <mxGeometry x="597.62" y="5575" width="80" height="40" as="geometry" />
        </mxCell>
        <mxCell id="lyI1Rf6VEcy5JzLfINy9-253" value="&lt;font style=&quot;font-size: 25px;&quot;&gt;4 bits&lt;/font&gt;" style="text;html=1;align=center;verticalAlign=middle;resizable=0;points=[];autosize=1;strokeColor=none;fillColor=none;" vertex="1" parent="WIyWlLk6GJQsqaUBKTNV-1">
          <mxGeometry x="240" y="5820" width="80" height="40" as="geometry" />
        </mxCell>
        <mxCell id="lyI1Rf6VEcy5JzLfINy9-254" value="&lt;font style=&quot;font-size: 25px;&quot;&gt;4 bits&lt;/font&gt;" style="text;html=1;align=center;verticalAlign=middle;resizable=0;points=[];autosize=1;strokeColor=none;fillColor=none;" vertex="1" parent="WIyWlLk6GJQsqaUBKTNV-1">
          <mxGeometry x="361.87" y="5820" width="80" height="40" as="geometry" />
        </mxCell>
        <mxCell id="lyI1Rf6VEcy5JzLfINy9-255" value="&lt;font style=&quot;font-size: 25px;&quot;&gt;4 bits&lt;/font&gt;" style="text;html=1;align=center;verticalAlign=middle;resizable=0;points=[];autosize=1;strokeColor=none;fillColor=none;" vertex="1" parent="WIyWlLk6GJQsqaUBKTNV-1">
          <mxGeometry x="480" y="5820" width="80" height="40" as="geometry" />
        </mxCell>
        <mxCell id="lyI1Rf6VEcy5JzLfINy9-256" value="&lt;font style=&quot;font-size: 25px;&quot;&gt;4 bits&lt;/font&gt;" style="text;html=1;align=center;verticalAlign=middle;resizable=0;points=[];autosize=1;strokeColor=none;fillColor=none;" vertex="1" parent="WIyWlLk6GJQsqaUBKTNV-1">
          <mxGeometry x="605.87" y="5820" width="80" height="40" as="geometry" />
        </mxCell>
        <mxCell id="lyI1Rf6VEcy5JzLfINy9-257" value="&lt;font style=&quot;font-size: 25px;&quot;&gt;4 bits&lt;/font&gt;" style="text;html=1;align=center;verticalAlign=middle;resizable=0;points=[];autosize=1;strokeColor=none;fillColor=none;" vertex="1" parent="WIyWlLk6GJQsqaUBKTNV-1">
          <mxGeometry x="730" y="5820" width="80" height="40" as="geometry" />
        </mxCell>
        <mxCell id="lyI1Rf6VEcy5JzLfINy9-258" value="&lt;span style=&quot;font-size: 25px;&quot;&gt;512 bits&lt;/span&gt;" style="text;html=1;align=center;verticalAlign=middle;resizable=0;points=[];autosize=1;strokeColor=none;fillColor=none;" vertex="1" parent="WIyWlLk6GJQsqaUBKTNV-1">
          <mxGeometry x="984" y="5820" width="110" height="40" as="geometry" />
        </mxCell>
        <mxCell id="lyI1Rf6VEcy5JzLfINy9-259" value="&lt;span style=&quot;font-size: 25px;&quot;&gt;492 bits&lt;/span&gt;" style="text;html=1;align=center;verticalAlign=middle;resizable=0;points=[];autosize=1;strokeColor=none;fillColor=none;" vertex="1" parent="WIyWlLk6GJQsqaUBKTNV-1">
          <mxGeometry x="1346.13" y="5820" width="110" height="40" as="geometry" />
        </mxCell>
        <mxCell id="lyI1Rf6VEcy5JzLfINy9-260" value="&lt;span style=&quot;font-size: 25px;&quot;&gt;1008 bits&lt;/span&gt;" style="text;html=1;align=center;verticalAlign=middle;resizable=0;points=[];autosize=1;strokeColor=none;fillColor=none;" vertex="1" parent="WIyWlLk6GJQsqaUBKTNV-1">
          <mxGeometry x="1089" y="5575" width="120" height="40" as="geometry" />
        </mxCell>
        <mxCell id="lyI1Rf6VEcy5JzLfINy9-261" value="" style="sketch=0;html=1;aspect=fixed;strokeColor=none;shadow=0;align=center;fillColor=#2D9C5E;verticalAlign=top;labelPosition=center;verticalLabelPosition=bottom;shape=mxgraph.gcp2.check" vertex="1" parent="WIyWlLk6GJQsqaUBKTNV-1">
          <mxGeometry x="1177" y="5115" width="25" height="20" as="geometry" />
        </mxCell>
        <mxCell id="lyI1Rf6VEcy5JzLfINy9-262" value="" style="sketch=0;html=1;aspect=fixed;strokeColor=none;shadow=0;align=center;fillColor=#2D9C5E;verticalAlign=top;labelPosition=center;verticalLabelPosition=bottom;shape=mxgraph.gcp2.check" vertex="1" parent="WIyWlLk6GJQsqaUBKTNV-1">
          <mxGeometry x="1228" y="5115" width="25" height="20" as="geometry" />
        </mxCell>
        <mxCell id="lyI1Rf6VEcy5JzLfINy9-263" value="" style="sketch=0;html=1;aspect=fixed;strokeColor=none;shadow=0;align=center;fillColor=#2D9C5E;verticalAlign=top;labelPosition=center;verticalLabelPosition=bottom;shape=mxgraph.gcp2.check" vertex="1" parent="WIyWlLk6GJQsqaUBKTNV-1">
          <mxGeometry x="1513.75" y="4950" width="25" height="20" as="geometry" />
        </mxCell>
        <mxCell id="lyI1Rf6VEcy5JzLfINy9-264" value="" style="sketch=0;html=1;aspect=fixed;strokeColor=none;shadow=0;align=center;fillColor=#2D9C5E;verticalAlign=top;labelPosition=center;verticalLabelPosition=bottom;shape=mxgraph.gcp2.check" vertex="1" parent="WIyWlLk6GJQsqaUBKTNV-1">
          <mxGeometry x="1560" y="4950" width="25" height="20" as="geometry" />
        </mxCell>
        <mxCell id="lyI1Rf6VEcy5JzLfINy9-265" value="" style="sketch=0;html=1;aspect=fixed;strokeColor=none;shadow=0;align=center;fillColor=#2D9C5E;verticalAlign=top;labelPosition=center;verticalLabelPosition=bottom;shape=mxgraph.gcp2.check" vertex="1" parent="WIyWlLk6GJQsqaUBKTNV-1">
          <mxGeometry x="1513.75" y="4786" width="25" height="20" as="geometry" />
        </mxCell>
        <mxCell id="lyI1Rf6VEcy5JzLfINy9-266" value="" style="sketch=0;html=1;aspect=fixed;strokeColor=none;shadow=0;align=center;fillColor=#2D9C5E;verticalAlign=top;labelPosition=center;verticalLabelPosition=bottom;shape=mxgraph.gcp2.check" vertex="1" parent="WIyWlLk6GJQsqaUBKTNV-1">
          <mxGeometry x="1560" y="4786" width="25" height="20" as="geometry" />
        </mxCell>
      </root>
    </mxGraphModel>
  </diagram>
</mxfile>
